<?xml version="1.0" encoding="UTF-8"?>
<svg version="1.1" xmlns="http://www.w3.org/2000/svg" width="192" height="192">
<path d="M0 0 C63.36 0 126.72 0 192 0 C192 63.36 192 126.72 192 192 C128.64 192 65.28 192 0 192 C0 128.64 0 65.28 0 0 Z " fill="#FF0000" transform="translate(0,0)"/>
<path d="M0 0 C63.36 0 126.72 0 192 0 C192 63.36 192 126.72 192 192 C128.64 192 65.28 192 0 192 C0 128.64 0 65.28 0 0 Z M80.875 10.625 C78.7934519 12.75730599 78.7934519 12.75730599 79 15 C77.824375 15.4640625 77.824375 15.4640625 76.625 15.9375 C74.07669872 16.92875038 74.07669872 16.92875038 72 18 C70.4248531 18.03719248 68.84802144 18.01321373 67.2734375 17.95703125 C66.32339844 17.93576172 65.37335938 17.91449219 64.39453125 17.89257812 C62.40458267 17.83980459 60.41491167 17.77498662 58.42578125 17.69726562 C51.37611363 17.56917611 45.72940534 18.48506338 40.45043945 23.46044922 C36.3486135 28.05468459 35.85595977 33.89202733 34.7265625 39.75 C33.42649135 45.56537204 31.01939749 48.50190827 26.125 51.625 C24.75469644 52.42476825 23.37986054 53.21683591 22 54 C16.83106399 57.1808837 12.96895181 60.09314457 11 66 C10.27037692 72.17052659 10.66615296 76.92836853 13.5 82.5 C16.29124511 88.10641518 17.17525185 92.79828641 16 99 C14.8671875 101.4921875 14.8671875 101.4921875 13.5 103.9375 C10.35334471 109.59248909 9.93911895 114.64348131 11 121 C13.15764246 127.24580712 17.04810406 130.04404158 22.7890625 132.93359375 C23.51867188 133.28550781 24.24828125 133.63742188 25 134 C30.55649633 137.04034705 32.99712313 140.09936765 35 146 C35.37093542 147.86792479 35.70311643 149.7438843 36 151.625 C36.94731842 157.58074974 38.97678607 161.08327102 43.375 165.25 C49.12331698 169.08221132 53.79490419 169.11674508 60.375 168.4375 C72.28298561 167.53806704 72.28298561 167.53806704 77 171 C79.39085654 173.22793616 81.64035896 175.51001573 83.82421875 177.94140625 C88.1815912 182.06409078 92.66742138 182.44988282 98.4375 182.3125 C105.78253512 181.41676401 109.61895385 177.56511267 114 172 C118.43995817 168.32117752 123.4155789 168.07932416 129 168 C130.87768535 168.18255274 132.75302951 168.39100369 134.625 168.625 C141.31570443 169.34321121 145.58918414 167.92865269 150.8125 163.75 C154.52809617 159.07896482 155.92286951 154.76415082 156.9375 149 C158.64366184 140.32482324 158.64366184 140.32482324 162 137 C165.23960144 135.06984376 168.55856269 133.37615433 171.921875 131.671875 C176.64002112 129.10922711 178.9232534 126.9067103 180.83203125 121.75390625 C182.56993635 115.23930294 181.6559828 110.13089364 179 104 C178.443125 103.195625 177.88625 102.39125 177.3125 101.5625 C175.0757845 97.19557926 175.28587703 92.78655397 176 88 C177.09967955 85.31977744 178.40633951 82.86878418 179.80859375 80.3359375 C182.33397956 75.38452531 182.4510315 70.81011861 181.0625 65.4375 C178.19498729 57.87769376 171.77298557 54.19936195 164.7578125 50.953125 C161.09301748 48.9659917 159.44008073 46.05130396 157.875 42.3125 C157 39 157 39 156.6484375 36.67578125 C155.65105345 30.29056767 153.83298925 25.47154775 149 21 C142.69993518 16.62165307 135.71535568 17.86798612 128.41015625 18.20507812 C120.81683032 18.40750099 117.40243878 17.05125644 111.69140625 11.9296875 C110.98886719 11.25164063 110.28632812 10.57359375 109.5625 9.875 C100.96386535 2.08701104 89.41914619 2.37463534 80.875 10.625 Z " fill="#FFFEFE" transform="translate(0,0)"/>
<path d="M0 0 C1.9375 1.0625 1.9375 1.0625 3 3 C2.6875 6.6875 2.6875 6.6875 2 10 C1.34 10 0.68 10 0 10 C-0.268125 10.598125 -0.53625 11.19625 -0.8125 11.8125 C-1.99917406 13.99847854 -3.09599113 15.41332594 -5 17 C-5.66 17 -6.32 17 -7 17 C-7.226875 17.556875 -7.45375 18.11375 -7.6875 18.6875 C-9.95600449 22.68438886 -12.61899946 25.53966649 -17 27 C-17.309375 27.639375 -17.61875 28.27875 -17.9375 28.9375 C-19.25784218 31.50051718 -20.4814674 31.7407337 -23 33 C-24.09166275 34.93330603 -24.09166275 34.93330603 -25 37 C-26.5 38.75 -26.5 38.75 -28 40 C-28.66 40 -29.32 40 -30 40 C-30 40.66 -30 41.32 -30 42 C-34.64538405 44.63167399 -38.77905915 44.92120413 -44 44 C-45.96606445 42.69946289 -45.96606445 42.69946289 -47.80078125 40.97265625 C-48.48446777 40.33739014 -49.1681543 39.70212402 -49.87255859 39.04760742 C-50.57461426 38.37189697 -51.27666992 37.69618652 -52 37 C-53.0511499 36.01253784 -53.0511499 36.01253784 -54.12353516 35.00512695 C-56.25293222 32.9857022 -58.34783558 30.93545197 -60.4375 28.875 C-61.15615234 28.18535156 -61.87480469 27.49570313 -62.61523438 26.78515625 C-63.29779297 26.11097656 -63.98035156 25.43679687 -64.68359375 24.7421875 C-65.29775146 24.1426123 -65.91190918 23.54303711 -66.54467773 22.92529297 C-68.30328612 20.59877297 -68.73776721 18.88836962 -69 16 C-67.67799504 13.49514849 -66.65767854 12.32883927 -64.125 11.0625 C-60.30804586 10.95023664 -57.62164576 13.44467644 -54.87182617 15.90112305 C-54.18580322 16.59761963 -53.49978027 17.29411621 -52.79296875 18.01171875 C-52.04208984 18.76904297 -51.29121094 19.52636719 -50.51757812 20.30664062 C-49.74865234 21.09232422 -48.97972656 21.87800781 -48.1875 22.6875 C-47.39923828 23.48478516 -46.61097656 24.28207031 -45.79882812 25.10351562 C-43.86127415 27.0645551 -41.92855724 29.03011881 -40 31 C-37.19923613 29.72370463 -35.16415401 28.40867105 -33.00732422 26.21850586 C-32.45350067 25.66130356 -31.89967712 25.10410126 -31.32907104 24.53001404 C-30.74352448 23.93100784 -30.15797791 23.33200165 -29.5546875 22.71484375 C-28.94360138 22.09855606 -28.33251526 21.48226837 -27.70291138 20.8473053 C-25.75545618 18.88206676 -23.81483091 16.91026236 -21.875 14.9375 C-19.92716399 12.96205725 -17.97789254 10.98808649 -16.02566528 9.01698303 C-14.81202071 7.79106939 -13.60105915 6.56249271 -12.39303589 5.33103943 C-8.09462034 0.98135155 -6.20098546 -0.50620289 0 0 Z " fill="#FFFDFD" transform="translate(132,70)"/>
<path d="M0 0 C1.875 1.0625 1.875 1.0625 3 3 C3.00137304 8.9004264 1.11216263 11.58587197 -2.83830261 15.59503174 C-3.51427994 16.24945251 -4.19025726 16.90387329 -4.88671875 17.578125 C-5.5813472 18.27137878 -6.27597565 18.96463257 -6.99165344 19.67889404 C-8.45993533 21.13813513 -9.93547978 22.59010036 -11.41772461 24.03515625 C-13.67812704 26.24085388 -15.91365337 28.46955603 -18.14648438 30.703125 C-19.57932336 32.12121351 -21.01352438 33.5379274 -22.44921875 34.953125 C-23.11507492 35.6156427 -23.78093109 36.2781604 -24.46696472 36.96075439 C-28.04509018 40.43136723 -31.25083558 43.21702297 -36 45 C-39.875 44.6875 -39.875 44.6875 -43 44 C-42.01 43.505 -42.01 43.505 -41 43 C-41 42.34 -41 41.68 -41 41 C-39.56378057 39.76418328 -38.12169464 38.53423012 -36.64453125 37.34765625 C-33.0390788 34.39306933 -29.98012536 31.00300713 -27 27.4375 C-24.56804854 24.55772117 -21.99445392 22.30342609 -19 20 C-16.54475594 17.66167232 -14.31161157 15.42702327 -12.3125 12.6875 C-11.6628125 11.8521875 -11.6628125 11.8521875 -11 11 C-10.34 11 -9.68 11 -9 11 C-8.896875 9.741875 -8.79375 8.48375 -8.6875 7.1875 C-8.35767678 4.63475861 -8.12623746 3.20197994 -6.75 1 C-4.31044362 -0.39403222 -2.76411292 -0.41461694 0 0 Z " fill="#FF5F5F" transform="translate(143,69)"/>
<path d="M0 0 C2.71727993 2.11204748 5.0260536 4.55417832 7.375 7.0625 C8.01566406 7.72572266 8.65632813 8.38894531 9.31640625 9.07226562 C10.8895392 10.70409756 12.44979234 12.34642396 14 14 C12.35 15.98 10.7 17.96 9 20 C4.35919113 17.90308431 1.26672047 14.67171494 -2.3125 11.125 C-2.97056641 10.49980469 -3.62863281 9.87460938 -4.30664062 9.23046875 C-4.92345703 8.62074219 -5.54027344 8.01101562 -6.17578125 7.3828125 C-6.74208252 6.82996582 -7.30838379 6.27711914 -7.8918457 5.70751953 C-9 4 -9 4 -8.80151367 1.85107422 C-7.02498005 -2.25178229 -3.64522245 -1.09698146 0 0 Z " fill="#FF6161" transform="translate(85,82)"/>
</svg>
