<?xml version="1.0" encoding="UTF-8"?>
<svg version="1.1" xmlns="http://www.w3.org/2000/svg" width="512" height="512">
<path d="M0 0 C168.96 0 337.92 0 512 0 C512 168.96 512 337.92 512 512 C343.04 512 174.08 512 0 512 C0 343.04 0 174.08 0 0 Z " fill="#FF0000" transform="translate(0,0)"/>
<path d="M0 0 C168.96 0 337.92 0 512 0 C512 168.96 512 337.92 512 512 C343.04 512 174.08 512 0 512 C0 343.04 0 174.08 0 0 Z M219 27 C217.57213345 28.78275377 216.15670321 30.57550008 214.75 32.375 C206.28204237 42.87526746 194.5026321 49.40546807 181 51 C175.59336953 51.21518927 171.11123435 50.72671663 165.8125 49.5 C149.15228099 46.06818721 133.1386792 46.46524924 118.25 55.1875 C106.75224684 62.99604603 100.02252753 74.25224861 96.62890625 87.6328125 C96.11435187 90.38775583 95.72804092 93.08684579 95.40234375 95.8671875 C93.53917394 111.6775142 90.13861896 124.61444771 77 135 C74.12251568 136.96674656 71.14086878 138.49509453 68 140 C50.67271778 148.3157881 37.68365159 156.51504904 30 175 C25.57477288 187.72517463 27.72206313 201.95144251 33.390625 213.94140625 C34.3737811 215.71884898 35.38016682 217.48365505 36.41015625 219.234375 C38.21802558 222.37926808 39.77639214 225.58912899 41.3125 228.875 C41.80363281 229.92429688 42.29476562 230.97359375 42.80078125 232.0546875 C47.02353952 242.42589185 46.44642746 256.63092327 42.47265625 266.95703125 C40.32259891 271.39972268 37.79569145 275.60418651 35.29931641 279.85888672 C28.32786368 292.07710653 26.16714975 305.2828144 29.125 319.0625 C33.03997865 333.15272975 41.54154633 343.5316621 54 351 C56.64143938 352.30475933 59.33722284 353.44523955 62.0625 354.5625 C74.96651678 359.86487225 85.20285018 367.81450873 91.1640625 380.73046875 C93.88709566 388.12337652 95.02610492 395.83455332 95.9375 403.625 C97.82523379 418.5580486 104.26773247 431.37068608 116 441 C119.5313808 443.36457954 123.12357305 445.26478449 127 447 C127.74378906 447.3403125 128.48757812 447.680625 129.25390625 448.03125 C140.6407046 452.30872556 154.36371005 450.759907 165.80859375 447.67578125 C180.83969548 444.49294086 193.20810486 448.48972266 206 456 C208.67773289 458.10055372 210.84098303 460.37752912 213 463 C222.38396651 474.24262654 233.92016555 484.08171717 249 486 C265.92910191 487.25069882 279.53795499 482.31504425 292.41015625 471.46484375 C294.92190209 469.07432848 296.97342606 466.63661283 299.0625 463.875 C306.10595166 454.63674569 316.5234189 448.79692407 328 447 C335.3135779 446.55152588 342.1985476 446.58366212 349.3125 448.5 C364.40222388 452.37438856 380.37033245 450.77821611 393.875 442.8125 C405.88744385 434.46367539 413.21721732 422.29043695 415.8125 408 C416.47011469 404.13552748 416.97265541 400.26768917 417.37109375 396.3671875 C418.77089304 383.46594457 423.67822498 372.98967672 433.26953125 364.109375 C437.82346813 360.59131218 442.75523084 358.30663485 448 356 C462.56511575 349.22000258 474.47468861 340.95055029 480.9921875 325.7734375 C485.95909539 312.10481502 485.52617142 297.81229261 479.41796875 284.5703125 C477.68373675 281.00801518 475.85111097 277.50287153 474 274 C467.54261831 261.77649679 464.79185425 250.42996873 468 236.5625 C470.07687658 229.83500983 473.68594485 223.81488568 477.08251953 217.68603516 C484.32481215 204.37702164 486.50221032 189.78617171 482.4375 175.0625 C477.49391701 161.151084 466.7973474 150.88836812 454 144 C451.637184 142.97154214 449.26155194 141.97210844 446.875 141 C440.71490446 138.45912908 435.86674848 135.5443138 431 131 C430.44957031 130.49082031 429.89914062 129.98164063 429.33203125 129.45703125 C419.85704387 119.59232716 418.2433327 107.50061962 416.46166992 94.53808594 C414.20975878 78.6007752 408.77191592 67.37415126 396.39453125 56.7890625 C386.7722218 49.5998003 377.180261 47.62874948 365.4375 47.6875 C363.83938477 47.68943359 363.83938477 47.68943359 362.20898438 47.69140625 C355.05640202 47.77836774 348.69494317 48.56513486 341.7578125 50.3203125 C331.5392563 52.83876686 320.51966788 49.42664431 311.44140625 44.57421875 C305.30906454 40.62008481 300.17746643 35.502261 295.5 29.9375 C287.55629506 20.64206905 277.28350451 13.79059832 265 12 C247.8466341 10.73555316 231.4295094 14.06701681 219 27 Z " fill="#FFFEFE" transform="translate(0,0)"/>
<path d="M0 0 C3.91690328 2.08957907 6.89044458 4.35449734 8.93359375 8.27734375 C9.67732841 13.72884216 9.77823887 18.52048189 7.37109375 23.52734375 C6.16453125 24.88859375 6.16453125 24.88859375 4.93359375 26.27734375 C4.42441406 26.89996094 3.91523438 27.52257812 3.390625 28.1640625 C-0.11725433 32.37833401 -3.9099689 35.95042004 -8.0859375 39.48828125 C-10.74593837 41.89120117 -13.03150859 44.53833463 -15.328125 47.28515625 C-17.46484661 49.73398327 -19.76393873 51.98320472 -22.06640625 54.27734375 C-23.93811032 56.17719854 -25.80802685 58.07869035 -27.67602539 59.98217773 C-33.15443761 65.55883857 -38.64826607 71.12004807 -44.15094852 76.67275906 C-47.4696678 80.02274728 -50.78255817 83.37810166 -54.08276367 86.74633789 C-57.29119742 90.02044792 -60.51450333 93.27924175 -63.74819756 96.52839851 C-64.96896362 97.76014736 -66.18448907 98.99711571 -67.39430428 100.23962212 C-77.23920791 110.33988809 -86.96755375 118.27969608 -101.69140625 118.58984375 C-111.69222176 118.44520386 -117.33623318 116.12845531 -124.66186523 109.30371094 C-125.18347701 108.81863949 -125.70508879 108.33356804 -126.24250698 107.83379745 C-131.72718007 102.70864613 -137.08770626 97.456948 -142.4140625 92.16796875 C-142.91784361 91.66826317 -143.42162472 91.16855759 -143.94067192 90.65370941 C-146.59245643 88.0224883 -149.24116838 85.38821853 -151.88745117 82.75146484 C-154.60233265 80.04776374 -157.32873313 77.35597917 -160.05764103 74.66644669 C-162.17732709 72.5729342 -164.28805091 70.47055616 -166.39648247 68.36571503 C-167.3981801 67.36885814 -168.40322623 66.37535333 -169.41179085 65.38544464 C-180.27618252 54.71013189 -180.27618252 54.71013189 -181.56640625 45.83984375 C-180.81296466 40.4715724 -178.58409469 36.4122957 -174.421875 32.8828125 C-170.26907145 30.22989285 -166.88488199 29.60106645 -162.06640625 30.27734375 C-156.14521638 32.5410321 -151.74240242 35.96341875 -147.25 40.34765625 C-146.61799179 40.95094757 -145.98598358 41.55423889 -145.33482361 42.17581177 C-136.80274467 50.36786114 -128.46992644 58.76681796 -120.12890625 67.15234375 C-118.46312811 68.82315347 -116.79711378 70.49372774 -115.13085938 72.1640625 C-111.10665822 76.19912281 -107.08534344 80.23704083 -103.06640625 84.27734375 C-98.27577427 82.09476648 -95.14880878 78.46137659 -91.57617188 74.70898438 C-91.06892578 74.18626953 -90.56167969 73.66355469 -90.0390625 73.125 C-89.58797119 72.65070557 -89.13687988 72.17641113 -88.67211914 71.68774414 C-87.06640625 70.27734375 -87.06640625 70.27734375 -84.8762207 69.0871582 C-81.27373797 66.76678245 -78.4976792 63.95610785 -75.50366211 60.90991211 C-74.86562149 60.26895096 -74.22758087 59.62798981 -73.57020569 58.96760559 C-72.19026467 57.58007348 -70.81263844 56.19023622 -69.43708611 54.7983532 C-67.26019857 52.59588873 -65.07708018 50.39977656 -62.89222717 48.20521545 C-58.25716605 43.54732446 -53.62998773 38.88165094 -49.00390625 34.21484375 C-43.63930067 28.80304995 -38.27151958 23.39448894 -32.89523506 17.99429512 C-30.74406225 15.83015237 -28.59899879 13.66007586 -26.4540863 11.48973083 C-25.1362726 10.16465262 -23.8181776 8.83985409 -22.49975586 7.51538086 C-21.90484344 6.9101358 -21.30993103 6.30489075 -20.69699097 5.68130493 C-20.14338394 5.12755692 -19.58977692 4.5738089 -19.01939392 4.00328064 C-18.54286849 3.52231399 -18.06634306 3.04134733 -17.57537746 2.54580593 C-12.61146705 -1.62692617 -6.04164911 -2.11286406 0 0 Z " fill="#FFFEFE" transform="translate(350.06640625,186.72265625)"/>
<path d="M0 0 C3.8632936 3.23438534 5.3023828 5.76454793 6.5625 10.625 C6.80246485 17.58398057 3.62702157 21.8180752 -0.8828125 26.734375 C-4.21073661 30.18000704 -7.56247873 33.60048655 -10.9375 37 C-11.58299805 37.65033203 -12.22849609 38.30066406 -12.89355469 38.97070312 C-16.22853373 42.29365494 -19.61621981 45.32735985 -23.3125 48.25 C-24.98979449 49.90597063 -26.65445671 51.57475435 -28.3125 53.25 C-29.32578719 54.25991026 -30.3400743 55.26881801 -31.35522461 56.27685547 C-34.34689689 59.25067359 -37.33547226 62.227583 -40.32299805 65.20556641 C-41.60497728 66.48251062 -42.88785175 67.75855672 -44.17163086 69.03369141 C-46.04261844 70.89244717 -47.91026649 72.75450491 -49.77734375 74.6171875 C-50.34315659 75.17783905 -50.90896942 75.7384906 -51.4919281 76.31613159 C-54.88584349 79.70957575 -58.02434817 83.21177559 -61.03443909 86.95193481 C-61.45619919 87.38029633 -61.87795929 87.80865784 -62.3125 88.25 C-62.9725 88.25 -63.6325 88.25 -64.3125 88.25 C-64.57353516 88.83410645 -64.83457031 89.41821289 -65.10351562 90.02001953 C-67.26173841 94.00087715 -70.62802603 96.94778491 -73.8125 100.125 C-74.53356934 100.84445801 -75.25463867 101.56391602 -75.99755859 102.30517578 C-80.99753881 107.19103696 -85.87999861 111.36346166 -92.3125 114.25 C-93.7665625 114.930625 -93.7665625 114.930625 -95.25 115.625 C-102.03378078 117.00944506 -108.88825067 117.02805377 -115.3125 114.25 C-114.22043773 110.9738132 -113.56963516 110.39974531 -110.98510742 108.29150391 C-105.19402615 103.37312175 -99.9052455 97.96702648 -94.55078125 92.5859375 C-93.43098138 91.46426736 -92.31095668 90.34282163 -91.1907196 89.22158813 C-88.26257227 86.28965186 -85.33743876 83.35472718 -82.41296387 80.41912842 C-79.44054052 77.43645674 -76.46527317 74.45662502 -73.49023438 71.4765625 C-68.25659779 66.23339822 -63.0254348 60.98777735 -57.7960968 55.74032593 C-56.06332309 54.00285739 -54.32835712 52.26757363 -52.59172058 50.53396606 C-50.81178975 48.75032931 -49.07428608 46.95311376 -47.375 45.09375 C-46.62089844 44.27197266 -46.62089844 44.27197266 -45.8515625 43.43359375 C-45.08972656 42.60021484 -45.08972656 42.60021484 -44.3125 41.75 C-40.72594532 37.82663688 -37.07529317 34.00656338 -33.3125 30.25 C-32.0473922 28.86784482 -30.79577787 27.47312978 -29.5625 26.0625 C-28.96953125 25.38832031 -28.3765625 24.71414062 -27.765625 24.01953125 C-24.92692513 20.56272738 -25.39543201 18.43848424 -25.6875 14.0625 C-25.72412213 9.32778177 -25.59644743 6.59069722 -22.25 3.125 C-14.92059451 -2.79150805 -8.36626282 -4.41991243 0 0 Z " fill="#FF5F5F" transform="translate(383.3125,186.75)"/>
<path d="M0 0 C2.19433594 1.47119141 2.19433594 1.47119141 4.359375 3.5390625 C5.65029053 4.76314819 5.65029053 4.76314819 6.96728516 6.01196289 C7.98013326 7.00599919 8.99086641 8.00219298 10 9 C10.88640167 9.87070633 10.88640167 9.87070633 11.79071045 10.75900269 C16.60214539 15.49379707 21.36628468 20.27482144 26.125 25.0625 C27.57268159 26.51520826 29.02059652 27.96768403 30.46875 29.41992188 C33.98186066 32.94394186 37.49180531 36.47108637 41 40 C39.65272739 42.79570164 38.40293767 44.83967803 36.1796875 47.015625 C35.64472656 47.54414063 35.10976563 48.07265625 34.55859375 48.6171875 C34.00300781 49.15601563 33.44742188 49.69484375 32.875 50.25 C32.31167969 50.80429687 31.74835938 51.35859375 31.16796875 51.9296875 C29.78313972 53.29104485 28.39216796 54.64614859 27 56 C23.53688497 54.50727325 21.25900786 52.52783996 18.58276367 49.88916016 C17.71894577 49.04132965 16.85512787 48.19349915 15.96513367 47.31997681 C15.04206924 46.40227509 14.11900482 45.48457336 13.16796875 44.5390625 C12.20729429 43.5873573 11.24654387 42.63572878 10.28572083 41.68417358 C8.27733208 39.6922449 6.27335233 37.69599067 4.27172852 35.69726562 C1.70311844 33.13405864 -0.88128601 30.58742597 -3.46986866 28.04441261 C-5.45737668 26.08659422 -7.43358858 24.1176702 -9.40680504 22.14545822 C-10.81674244 20.74178341 -12.23825771 19.34976948 -13.65986633 17.95791626 C-14.50792343 17.10378143 -15.35598053 16.24964661 -16.22973633 15.36962891 C-16.9837825 14.62065338 -17.73782867 13.87167786 -18.51472473 13.1000061 C-20 11 -20 11 -19.84892273 8.89096069 C-15.94951192 0.20509058 -8.8274838 -1.67100259 0 0 Z " fill="#FF6060" transform="translate(222,216)"/>
</svg>
