<?xml version="1.0" encoding="UTF-8"?>
<svg version="1.1" xmlns="http://www.w3.org/2000/svg" width="1500" height="1500">
<path d="M0 0 C495 0 990 0 1500 0 C1500 495 1500 990 1500 1500 C1005 1500 510 1500 0 1500 C0 1005 0 510 0 0 Z " fill="#FF0000" transform="translate(0,0)"/>
<path d="M0 0 C495 0 990 0 1500 0 C1500 495 1500 990 1500 1500 C1005 1500 510 1500 0 1500 C0 1005 0 510 0 0 Z M718 37 C717.29069336 37.18755859 716.58138672 37.37511719 715.85058594 37.56835938 C707.62794374 39.75964565 699.627534 42.18009167 692 46 C690.76486154 46.58317341 689.52912419 47.16507916 688.29296875 47.74609375 C679.85619595 51.76890589 672.40648809 56.25301075 665 62 C663.04571301 63.42224339 661.0873912 64.83895972 659.125 66.25 C653.68396751 70.1805369 648.70112089 74.19683928 644 79 C643.11699219 79.85980469 642.23398437 80.71960938 641.32421875 81.60546875 C640.45410156 82.45753906 639.58398438 83.30960938 638.6875 84.1875 C637.80449219 85.04730469 636.92148437 85.90710938 636.01171875 86.79296875 C633.7754504 88.74863355 633.7754504 88.74863355 634 91 C633.34 91 632.68 91 632 91 C630.75185669 92.40678023 629.5769161 93.87879704 628.4375 95.375 C624.18907825 100.81420904 619.69641746 105.94488636 615 111 C614.38769531 111.67804688 613.77539062 112.35609375 613.14453125 113.0546875 C595.68405696 131.59480732 569.73446477 143.28698594 545 148 C544.03835938 148.20238281 543.07671875 148.40476562 542.0859375 148.61328125 C523.05717481 152.01623516 501.76918867 151.40436121 483.1875 146.125 C476.09487161 144.1189282 468.97160311 142.91945063 461.6875 141.8125 C460.59010498 141.64572754 459.49270996 141.47895508 458.36206055 141.30712891 C418.70149408 135.46506833 381.62584892 141.38937564 347 162 C347 162.66 347 163.32 347 164 C346.43152344 164.09667969 345.86304688 164.19335938 345.27734375 164.29296875 C340.45950927 165.78872868 336.77109866 169.77052222 333 173 C332.48163574 173.44311523 331.96327148 173.88623047 331.42919922 174.34277344 C323.14752588 181.49410691 316.30793289 189.06918093 310 198 C309.29101562 199.0003125 308.58203125 200.000625 307.8515625 201.03125 C295.71224521 218.70535181 286.54439712 239.44014808 282.9375 260.6875 C282.0692412 265.76071466 282.0692412 265.76071466 281.51367188 267.68066406 C280.78348675 270.9776026 280.57265228 274.30052575 280.31640625 277.66015625 C280.192166 279.19206611 280.06781333 280.72396686 279.94335938 282.25585938 C279.75283983 284.64918489 279.56404729 287.04262638 279.37768555 289.4362793 C278.67522927 298.39515539 277.88157644 307.19446082 276 316 C275.70029297 317.51787109 275.70029297 317.51787109 275.39453125 319.06640625 C267.3212379 353.68945626 245.90596952 383.55480292 216.08007812 402.70703125 C207.52110369 408.02725761 198.76972935 412.26105057 189.296875 415.73828125 C173.01988371 421.96750896 156.69220816 430.20886965 143 441 C141.74896484 441.96486328 141.74896484 441.96486328 140.47265625 442.94921875 C138.96798561 444.11247304 137.46727615 445.28089111 135.97265625 446.45703125 C134.59377982 447.53555836 133.18127346 448.57183153 131.74609375 449.57421875 C130.88177734 450.27998047 130.88177734 450.27998047 130 451 C130 451.66 130 452.32 130 453 C129.40316406 453.27328125 128.80632812 453.5465625 128.19140625 453.828125 C120.17290548 458.11609333 114.66741284 467.33235423 109.23876953 474.40454102 C108.12339106 475.8410799 106.97567072 477.25236668 105.82421875 478.66015625 C101.30181419 484.46084218 98.18330905 491.39222213 95 498 C94.5978125 498.80953125 94.195625 499.6190625 93.78125 500.453125 C90.28193755 507.75047169 88.00831855 515.17127677 86 523 C85.7834375 523.83789062 85.566875 524.67578125 85.34375 525.5390625 C82.95991517 535.46002215 82.81350885 545.4986217 82.81469727 555.65722656 C82.81251823 557.7326331 82.7943152 559.80749988 82.77539062 561.8828125 C82.7386098 570.70759324 83.22908526 579.32619868 85 588 C85.33 588.33 85.66 588.66 86 589 C86.28122144 590.34802888 86.52324664 591.70424735 86.75 593.0625 C88.97225379 604.55237514 92.82284397 615.52598491 98 626 C98.46664062 627.00546875 98.93328125 628.0109375 99.4140625 629.046875 C103.47270322 637.56402253 108.29284159 645.4628737 113.29296875 653.45263672 C122.64102948 668.39051166 128.89422088 682.77413632 132.54174805 700.01977539 C132.96866536 701.86459497 133.52663857 703.67772 134.09375 705.484375 C135.7974844 712.26042212 135.3456887 719.49369746 135.3125 726.4375 C135.31100952 727.19944672 135.30951904 727.96139343 135.3079834 728.74642944 C135.26909746 739.76174115 134.87345926 750.30434609 132 761 C131.69835937 762.13308594 131.39671875 763.26617188 131.0859375 764.43359375 C130.15022529 767.66294198 129.11076862 770.82694414 128 774 C127.63003906 775.07894531 127.26007813 776.15789063 126.87890625 777.26953125 C124.05426043 785.07666708 120.30968718 791.92692543 116 799 C115.15802077 800.5160638 114.32395153 802.03656345 113.5 803.5625 C111.7048192 806.8370969 109.74267947 809.94493656 107.6875 813.0625 C100.06328632 824.96290309 94.65734796 837.70166056 90 851 C89.69320312 851.84046875 89.38640625 852.6809375 89.0703125 853.546875 C84.11267049 867.55093594 82.82694298 881.45046866 82.86962891 896.17382812 C82.87497158 898.36335224 82.86966612 900.55266974 82.86328125 902.7421875 C82.84600181 930.46449516 91.20139629 954.18281096 105 978 C105.66 978 106.32 978 107 978 C107.2475 978.70125 107.495 979.4025 107.75 980.125 C109.17180238 983.39514548 110.87246288 986.141122 113 989 C113.66 989 114.32 989 115 989 C115.25072266 989.57524414 115.50144531 990.15048828 115.75976562 990.74316406 C117.16728827 993.30441196 118.78170025 995.04057392 120.84375 997.109375 C121.59527344 997.86347656 122.34679687 998.61757813 123.12109375 999.39453125 C123.90613281 1000.17183594 124.69117188 1000.94914063 125.5 1001.75 C126.28503906 1002.54277344 127.07007813 1003.33554687 127.87890625 1004.15234375 C128.63042969 1004.90128906 129.38195312 1005.65023437 130.15625 1006.421875 C130.84525391 1007.10862305 131.53425781 1007.79537109 132.24414062 1008.50292969 C133.86907959 1010.21626749 133.86907959 1010.21626749 136 1010 C136 1010.66 136 1011.32 136 1012 C138.42407229 1013.84061072 140.84838076 1015.56043578 143.375 1017.25 C144.11234375 1017.74798096 144.8496875 1018.24596191 145.609375 1018.7590332 C159.41316309 1028.02664225 173.68758508 1035.42785637 189.18359375 1041.42578125 C197.15467245 1044.61546114 204.73146737 1048.77836606 212.33984375 1052.73828125 C214.8104724 1054.14284752 214.8104724 1054.14284752 217 1054 C217 1054.66 217 1055.32 217 1056 C217.969375 1056.495 218.93875 1056.99 219.9375 1057.5 C224.18141581 1059.89045054 227.55306289 1063.06209718 231.08203125 1066.390625 C232.83805835 1068.21426317 232.83805835 1068.21426317 235 1068 C235 1068.66 235 1069.32 235 1070 C236.06380389 1070.96321498 237.1795922 1071.86910175 238.3125 1072.75 C262.04360126 1093.00109878 276.2576036 1127.13525918 278.81445312 1157.62353516 C278.87568359 1158.40776855 278.93691406 1159.19200195 279 1160 C279.07669922 1160.98145996 279.15339844 1161.96291992 279.23242188 1162.97412109 C279.31556641 1164.04871582 279.39871094 1165.12331055 279.484375 1166.23046875 C279.57041992 1167.33616211 279.65646484 1168.44185547 279.74511719 1169.58105469 C279.91093503 1171.76464066 280.06829131 1173.94889125 280.21582031 1176.13378906 C280.60665395 1181.56586004 281.21092458 1186.7326399 282.55493164 1192.01586914 C283.04034456 1194.17985749 283.2595046 1196.29094096 283.4375 1198.5 C283.830158 1202.47480112 284.83394418 1205.93456718 286.18359375 1209.68359375 C287.03553121 1212.10081344 287.74003919 1214.53411395 288.4375 1217 C289.90121076 1221.89148238 291.82159628 1226.38882805 294 1231 C294.6437605 1232.3890768 295.28693489 1233.77842529 295.9296875 1235.16796875 C296.64006115 1236.69557483 297.35100479 1238.22291597 298.0625 1239.75 C298.4030542 1240.48355713 298.7436084 1241.21711426 299.09448242 1241.97290039 C301.73925235 1247.65777904 301.73925235 1247.65777904 305 1253 C305.66 1253 306.32 1253 307 1253 C307.08378906 1253.54140625 307.16757812 1254.0828125 307.25390625 1254.640625 C308.25850719 1257.81747823 309.97422933 1260.06603503 311.9375 1262.75 C312.64777344 1263.73484375 313.35804688 1264.7196875 314.08984375 1265.734375 C314.72019531 1266.48203125 315.35054687 1267.2296875 316 1268 C316.66 1268 317.32 1268 318 1268 C318.27021973 1268.59546631 318.54043945 1269.19093262 318.81884766 1269.80444336 C319.99032829 1271.98202198 321.15200644 1273.39658162 322.8984375 1275.12890625 C323.46046875 1275.68900391 324.0225 1276.24910156 324.6015625 1276.82617188 C325.18679688 1277.39916016 325.77203125 1277.97214844 326.375 1278.5625 C327.24125 1279.4277832 327.24125 1279.4277832 328.125 1280.31054688 C332.83675786 1285.63393011 332.83675786 1285.63393011 339 1288 C339 1288.66 339 1289.32 339 1290 C341.95307857 1292.3321102 345.2355018 1294.21674241 348.4375 1296.1875 C349.38657227 1296.77321777 350.33564453 1297.35893555 351.31347656 1297.96240234 C359.57458307 1302.94755283 367.93437597 1306.7517308 377 1310 C378.30130859 1310.48339844 378.30130859 1310.48339844 379.62890625 1310.9765625 C381.73859421 1311.72382228 383.84928065 1312.38156971 386 1313 C387.27230469 1313.38091797 387.27230469 1313.38091797 388.5703125 1313.76953125 C418.29453805 1321.99026393 451.50294429 1319.23511953 481 1311.4375 C502.43104656 1306.09380073 526.28778085 1306.11894083 548 1310 C548.9075 1310.13277344 549.815 1310.26554687 550.75 1310.40234375 C557.61061612 1311.52791358 563.6875945 1314.15738127 570 1317 C570.98871094 1317.43957031 571.97742188 1317.87914062 572.99609375 1318.33203125 C575.67383719 1319.53465415 578.33890455 1320.76106376 581 1322 C581.99 1322.45375 582.98 1322.9075 584 1323.375 C588.01769476 1325.55125133 591.79682042 1328.05855773 595.609375 1330.57421875 C597.8223653 1332.17074127 597.8223653 1332.17074127 600 1332 C600 1332.66 600 1333.32 600 1334 C601.77988465 1335.60855101 601.77988465 1335.60855101 604.0625 1337.25 C607.09689146 1339.54616668 610.09475167 1341.85421295 613 1344.3125 C613.8353125 1345.01826172 613.8353125 1345.01826172 614.6875 1345.73828125 C616 1347 616 1347 617 1349 C617.66 1349 618.32 1349 619 1349 C619.21269531 1349.52078125 619.42539062 1350.0415625 619.64453125 1350.578125 C621.56714917 1354.0133501 624.09999511 1356.79741854 626.6875 1359.75 C627.22987305 1360.37398682 627.77224609 1360.99797363 628.33105469 1361.64086914 C629.40520302 1362.87601131 630.48084473 1364.10985661 631.55810547 1365.34228516 C632.73972069 1366.70076253 633.90537856 1368.07310465 635.06640625 1369.44921875 C638.48057082 1373.48125998 642.10464269 1376.98037638 646.140625 1380.390625 C647.81391355 1381.83893358 649.34780896 1383.33844114 650.875 1384.9375 C652.74563699 1387.23215846 652.74563699 1387.23215846 655 1387 C655 1387.66 655 1388.32 655 1389 C658.63323689 1391.96235695 658.63323689 1391.96235695 663 1393 C663 1393.66 663 1394.32 663 1395 C681.10255186 1408.66927385 701.85475786 1417.03384036 723.87695312 1421.56103516 C725.63487801 1421.92450675 727.38841811 1422.30911299 729.140625 1422.69921875 C745.97879885 1425.94263748 764.40966822 1425.15232304 781 1421 C782.11761719 1420.74863281 783.23523438 1420.49726562 784.38671875 1420.23828125 C789.90040955 1418.95650073 794.79842406 1417.25550135 800 1415 C801.27345535 1414.52460729 802.55094498 1414.05989668 803.83203125 1413.60546875 C811.78388486 1410.78323762 818.95793537 1407.73603642 826 1403 C826.7321875 1402.52820312 827.464375 1402.05640625 828.21875 1401.5703125 C832.57159855 1398.73483017 836.82382805 1395.75284432 841.0625 1392.75 C842.00222656 1392.08484375 842.94195313 1391.4196875 843.91015625 1390.734375 C844.59980469 1390.16203125 845.28945313 1389.5896875 846 1389 C846 1388.34 846 1387.68 846 1387 C849 1385.5 849 1385.5 852 1384 C852 1383.34 852 1382.68 852 1382 C852.85851562 1381.62875 852.85851562 1381.62875 853.734375 1381.25 C856.35010611 1379.80683801 858.14773456 1378.11783778 860.25 1376 C860.95640625 1375.29875 861.6628125 1374.5975 862.390625 1373.875 C864.21710399 1372.15889232 864.21710399 1372.15889232 864 1370 C864.66 1370 865.32 1370 866 1370 C867.41438406 1368.42713316 868.75604401 1366.78860004 870.0625 1365.125 C873.97045961 1360.22101822 878.06024465 1355.5766617 882.34765625 1350.99609375 C884.21255342 1349.17510415 884.21255342 1349.17510415 884 1347 C884.99 1346.67 885.98 1346.34 887 1346 C887 1345.34 887 1344.68 887 1344 C887.84304688 1343.62875 887.84304688 1343.62875 888.703125 1343.25 C891.38998825 1341.7877615 893.44101936 1340.00780925 895.75 1338 C919.78834849 1318.04849255 948.91494767 1307.81100376 980.05859375 1307.81469727 C982.09917605 1307.81252746 984.13920164 1307.79437533 986.1796875 1307.77539062 C994.62790605 1307.73948026 1002.69611563 1308.43598728 1011 1310 C1011.89541504 1310.16604736 1012.79083008 1310.33209473 1013.71337891 1310.50317383 C1018.33701321 1311.38139777 1022.91639349 1312.43441858 1027.5 1313.5 C1057.04286394 1320.34951646 1087.75345338 1320.21845097 1117 1312 C1117.66 1311.82098145 1118.32 1311.64196289 1119 1311.45751953 C1131.49473747 1308.03793928 1143.94104726 1303.35933659 1154 1295 C1155.16752345 1294.27909675 1156.35309701 1293.58569511 1157.5625 1292.9375 C1160.24834859 1291.42365807 1162.69075148 1290.0321387 1165 1288 C1165 1287.34 1165 1286.68 1165 1286 C1165.58265625 1285.731875 1166.1653125 1285.46375 1166.765625 1285.1875 C1169.02786601 1283.98519009 1170.80576318 1282.66174087 1172.75 1281 C1173.36359375 1280.484375 1173.9771875 1279.96875 1174.609375 1279.4375 C1176.23176376 1278.09376748 1176.23176376 1278.09376748 1176 1276 C1176.99 1275.67 1177.98 1275.34 1179 1275 C1180.84269521 1272.89029004 1182.55753161 1270.78716755 1184.25 1268.5625 C1184.74089111 1267.92505859 1185.23178223 1267.28761719 1185.73754883 1266.63085938 C1187.16890115 1264.76160689 1188.58732473 1262.88339384 1190 1261 C1190.65871094 1260.12214844 1191.31742188 1259.24429687 1191.99609375 1258.33984375 C1200.02517155 1247.23264374 1205.86881822 1235.81868833 1210.32666016 1222.90332031 C1211.23628026 1220.3321099 1212.23520892 1217.79739927 1213.24291992 1215.26318359 C1218.411618 1199.81209323 1220.41102405 1183.32493537 1221.66741943 1167.16641235 C1222.88311761 1151.91656723 1224.46424512 1137.37890363 1230 1123 C1230.23444824 1122.35756348 1230.46889648 1121.71512695 1230.71044922 1121.05322266 C1236.20122839 1106.15410769 1245.05404401 1093.23725985 1255 1081 C1255.59039063 1080.26652344 1256.18078125 1079.53304688 1256.7890625 1078.77734375 C1259.58747226 1075.39772581 1262.57561004 1072.7193685 1266 1070 C1266 1069.34 1266 1068.68 1266 1068 C1268 1067 1270 1066 1272 1065 C1272 1064.34 1272 1063.68 1272 1063 C1272.73476562 1062.73445313 1273.46953125 1062.46890625 1274.2265625 1062.1953125 C1276.97383329 1061.01127749 1278.99440299 1059.67088897 1281.375 1057.875 C1290.76391731 1051.17859538 1300.87119274 1046.22692891 1311.68359375 1042.2734375 C1317.94760473 1039.86817533 1323.96006796 1036.91378569 1330 1034 C1331.08925781 1033.48179687 1332.17851563 1032.96359375 1333.30078125 1032.4296875 C1339.56356141 1029.389812 1345.3363391 1026.04268209 1351 1022 C1352.27617187 1021.10667969 1352.27617187 1021.10667969 1353.578125 1020.1953125 C1360.62941927 1015.17882029 1367.6835816 1009.93059878 1374 1004 C1374 1003.34 1374 1002.68 1374 1002 C1374.99 1001.67 1375.98 1001.34 1377 1001 C1377 1000.34 1377 999.68 1377 999 C1377.66 999 1378.32 999 1379 999 C1384.77787517 993.55005829 1389.69630525 986.63998619 1394 980 C1394 979.34 1394 978.68 1394 978 C1394.66 978 1395.32 978 1396 978 C1407.19861351 962.75369486 1413.76238505 943.46083755 1417 925 C1417.20496094 923.94167969 1417.40992188 922.88335938 1417.62109375 921.79296875 C1421.53800504 899.0208569 1418.04565972 877.00711739 1412 855 C1411.6803125 853.83339844 1411.360625 852.66679688 1411.03125 851.46484375 C1409.28635386 845.4491736 1407.21951485 839.93195214 1404.24609375 834.4140625 C1403 832 1403 832 1401.65625 828.78125 C1399.76816774 824.30931784 1397.42577512 820.10993282 1395.0625 815.875 C1394.41764648 814.69744141 1394.41764648 814.69744141 1393.75976562 813.49609375 C1391.44880924 809.33707361 1388.9840594 805.71472414 1386 802 C1384.45923675 799.17699083 1383.04855353 796.3157062 1381.64672852 793.42236328 C1380.36063336 790.77373748 1379.07831267 788.14100807 1377.6484375 785.56640625 C1374.59178893 780.03485836 1372.66539595 774.26782746 1370.8125 768.25 C1370.56234131 767.45255371 1370.31218262 766.65510742 1370.05444336 765.83349609 C1366.39403659 753.45565555 1365.61621915 740.97270675 1365.6875 728.125 C1365.68965515 727.42211853 1365.6918103 726.71923706 1365.69403076 725.99505615 C1365.78640216 707.20521887 1369.07716027 688.91185104 1377.93969727 672.13476562 C1378.8291585 670.34396457 1379.61964091 668.50447323 1380.38500977 666.65722656 C1381.96584107 663.07735462 1383.76759747 659.89649453 1385.8359375 656.578125 C1386.57819469 655.37504299 1387.32037988 654.17191657 1388.0625 652.96875 C1389.21442786 651.11395091 1390.36845279 649.26049111 1391.52441406 647.40820312 C1396.24764041 639.82351917 1400.55338499 632.26885269 1404 624 C1404.28939453 623.3292041 1404.57878906 622.6584082 1404.87695312 621.96728516 C1411.63471136 606.17249985 1416.7197011 589.32100127 1417.7890625 572.109375 C1418 570 1418 570 1419 568 C1420.52012938 550.5162089 1417.85675276 532.78020926 1413 516 C1412.78730469 515.25105469 1412.57460937 514.50210937 1412.35546875 513.73046875 C1407.34913151 497.48183035 1398.26088559 482.42333148 1388 469 C1387.47019531 468.23945313 1386.94039062 467.47890625 1386.39453125 466.6953125 C1385.70423828 465.85613281 1385.70423828 465.85613281 1385 465 C1384.34 465 1383.68 465 1383 465 C1382.76796875 464.44441406 1382.5359375 463.88882812 1382.296875 463.31640625 C1368.84834215 439.29538222 1332.19309027 422.68350417 1307.75 413.6875 C1296.38496679 409.35668261 1286.20475236 403.51293984 1276.47875977 396.23754883 C1273.97708926 394.36786371 1271.98904194 392.99634731 1269 392 C1269 391.34 1269 390.68 1269 390 C1267.44616853 388.46762449 1267.44616853 388.46762449 1265.4375 386.875 C1261.68243387 383.70687138 1258.54734343 380.30569764 1255.4453125 376.50390625 C1254.96835938 376.00761719 1254.49140625 375.51132812 1254 375 C1253.34 375 1252.68 375 1252 375 C1251.58572754 374.13652954 1251.58572754 374.13652954 1251.16308594 373.25561523 C1250.01978836 371.0383763 1248.75829738 368.99539556 1247.390625 366.91015625 C1237.64449332 351.88798171 1230.76063066 337.34229741 1226 320 C1225.67112793 318.96383545 1225.34225586 317.9276709 1225.00341797 316.86010742 C1223.88581591 312.56073852 1223.42780333 308.4649323 1223.0703125 304.05078125 C1222.91296733 302.29620539 1222.75540784 300.54164874 1222.59765625 298.78710938 C1222.36149017 296.07216933 1222.1287344 293.35700774 1221.90087891 290.64135742 C1220.50513405 274.20275293 1218.46028513 257.6566043 1213 242 C1212.72381836 241.18885742 1212.44763672 240.37771484 1212.16308594 239.54199219 C1207.89190761 227.30044815 1202.74258526 216.0647553 1196 205 C1195.45988281 204.030625 1194.91976563 203.06125 1194.36328125 202.0625 C1193.91339844 201.381875 1193.46351562 200.70125 1193 200 C1192.34 200 1191.68 200 1191 200 C1190.77699219 199.30648437 1190.55398438 198.61296875 1190.32421875 197.8984375 C1188.68568677 194.31203417 1186.38193928 191.56752652 1183.8125 188.625 C1183.06286987 187.7580249 1183.06286987 187.7580249 1182.2980957 186.87353516 C1180.87543397 185.23981036 1179.44114838 183.61741931 1178 182 C1177.40960937 181.33484375 1176.81921875 180.6696875 1176.2109375 179.984375 C1158.75022101 161.53869502 1135.15916738 149.77711708 1111 143 C1109.88238281 142.67515625 1109.88238281 142.67515625 1108.7421875 142.34375 C1103.15751158 140.89980337 1097.49941011 140.61060466 1091.75854492 140.34106445 C1088.77335187 140.19852854 1085.88282138 139.98029608 1082.93359375 139.484375 C1062.34322784 136.08463416 1039.05279917 140.17582664 1019.22192383 145.43579102 C1007.6726502 148.49743109 996.28056759 150.38255416 984.3125 150.25 C983.37680176 150.24178223 982.44110352 150.23356445 981.47705078 150.22509766 C959.23213297 149.87522832 939.63448539 145.67530504 920 135 C918.25255332 134.16132573 916.50274878 133.32753619 914.75 132.5 C910.17037343 130.23293321 906.1290455 127.39639611 902.03125 124.35546875 C900.12972882 122.8149769 900.12972882 122.8149769 898 123 C898 122.34 898 121.68 898 121 C896.52520322 119.73588848 894.9928273 118.53859807 893.4375 117.375 C889.18479532 114.08141595 885.72949776 110.6618722 882.375 106.46875 C881.694375 105.74171875 881.694375 105.74171875 881 105 C880.34 105 879.68 105 879 105 C878.7525 104.44828125 878.505 103.8965625 878.25 103.328125 C876.75765526 100.54863293 874.96327477 98.2185293 873 95.75 C872.29875 94.85796875 871.5975 93.9659375 870.875 93.046875 C869.946875 92.03367187 869.946875 92.03367187 869 91 C868.34 91 867.68 91 867 91 C866.7834375 90.45859375 866.566875 89.9171875 866.34375 89.359375 C864.53500003 86.18354656 862.08276201 83.79271919 859.5 81.25 C859.00113281 80.74339844 858.50226562 80.23679688 857.98828125 79.71484375 C855.46938363 76.87194401 855.46938363 76.87194401 852 76 C851.67 75.01 851.34 74.02 851 73 C850.34 73 849.68 73 849 73 C849 72.34 849 71.68 849 71 C846.36315253 68.60179695 846.36315253 68.60179695 843 68 C843 67.34 843 66.68 843 66 C840.86638454 64.37832963 838.74229809 62.89632122 836.5 61.4375 C835.8287207 60.99639893 835.15744141 60.55529785 834.46582031 60.10083008 C827.17619863 55.37203863 819.67360936 51.07123482 812 47 C811.08089844 46.50628906 810.16179688 46.01257812 809.21484375 45.50390625 C800.62231357 41.24084259 791.30086062 39.13286159 782 37 C781.29552734 36.83193848 780.59105469 36.66387695 779.86523438 36.49072266 C760.2129435 31.94507052 737.47473326 31.67718787 718 37 Z " fill="#FFFEFE" transform="translate(0,0)"/>
<path d="M0 0 C0.59425781 0.46277344 1.18851563 0.92554688 1.80078125 1.40234375 C1.80078125 2.06234375 1.80078125 2.72234375 1.80078125 3.40234375 C2.41953125 3.64984375 3.03828125 3.89734375 3.67578125 4.15234375 C6.15146812 5.60863014 6.75203127 6.78046881 7.80078125 9.40234375 C8.46078125 9.40234375 9.12078125 9.40234375 9.80078125 9.40234375 C10.72890625 10.82546875 10.72890625 10.82546875 11.67578125 12.27734375 C13.68002598 15.22476247 14.54868856 16.24088208 17.80078125 17.40234375 C17.80078125 19.05234375 17.80078125 20.70234375 17.80078125 22.40234375 C18.46078125 22.40234375 19.12078125 22.40234375 19.80078125 22.40234375 C22.0251165 26.85101425 20.98577726 32.95456262 20.98828125 37.83984375 C21.00052734 39.09345703 21.01277344 40.34707031 21.02539062 41.63867188 C21.02829102 43.43788086 21.02829102 43.43788086 21.03125 45.2734375 C21.03535889 46.3761499 21.03946777 47.4788623 21.04370117 48.61499023 C20.80078125 51.40234375 20.80078125 51.40234375 18.80078125 54.40234375 C18.49140625 55.35109375 18.18203125 56.29984375 17.86328125 57.27734375 C16.82383508 60.33453835 15.66049595 62.76774793 13.80078125 65.40234375 C13.14078125 65.40234375 12.48078125 65.40234375 11.80078125 65.40234375 C11.69765625 65.97984375 11.59453125 66.55734375 11.48828125 67.15234375 C10.6918166 69.75895533 9.61012848 71.37587485 7.80078125 73.40234375 C7.14078125 73.40234375 6.48078125 73.40234375 5.80078125 73.40234375 C5.80078125 74.39234375 5.80078125 75.38234375 5.80078125 76.40234375 C4.81078125 76.40234375 3.82078125 76.40234375 2.80078125 76.40234375 C2.47078125 77.39234375 2.14078125 78.38234375 1.80078125 79.40234375 C1.14078125 79.40234375 0.48078125 79.40234375 -0.19921875 79.40234375 C-0.52921875 80.39234375 -0.85921875 81.38234375 -1.19921875 82.40234375 C-1.85921875 82.40234375 -2.51921875 82.40234375 -3.19921875 82.40234375 C-3.52921875 83.39234375 -3.85921875 84.38234375 -4.19921875 85.40234375 C-4.85921875 85.40234375 -5.51921875 85.40234375 -6.19921875 85.40234375 C-6.52921875 86.39234375 -6.85921875 87.38234375 -7.19921875 88.40234375 C-7.85921875 88.40234375 -8.51921875 88.40234375 -9.19921875 88.40234375 C-9.52921875 89.39234375 -9.85921875 90.38234375 -10.19921875 91.40234375 C-10.85921875 91.40234375 -11.51921875 91.40234375 -12.19921875 91.40234375 C-12.19921875 92.06234375 -12.19921875 92.72234375 -12.19921875 93.40234375 C-13.86137143 94.74130007 -15.52885482 96.07364517 -17.19921875 97.40234375 C-17.92109375 98.30984375 -18.64296875 99.21734375 -19.38671875 100.15234375 C-19.98484375 100.89484375 -20.58296875 101.63734375 -21.19921875 102.40234375 C-21.85921875 102.40234375 -22.51921875 102.40234375 -23.19921875 102.40234375 C-23.52921875 103.39234375 -23.85921875 104.38234375 -24.19921875 105.40234375 C-24.85921875 105.40234375 -25.51921875 105.40234375 -26.19921875 105.40234375 C-26.52921875 106.39234375 -26.85921875 107.38234375 -27.19921875 108.40234375 C-27.85921875 108.40234375 -28.51921875 108.40234375 -29.19921875 108.40234375 C-29.52921875 109.39234375 -29.85921875 110.38234375 -30.19921875 111.40234375 C-30.85921875 111.40234375 -31.51921875 111.40234375 -32.19921875 111.40234375 C-32.52921875 112.39234375 -32.85921875 113.38234375 -33.19921875 114.40234375 C-33.85921875 114.40234375 -34.51921875 114.40234375 -35.19921875 114.40234375 C-35.52921875 115.39234375 -35.85921875 116.38234375 -36.19921875 117.40234375 C-36.85921875 117.40234375 -37.51921875 117.40234375 -38.19921875 117.40234375 C-38.19921875 118.06234375 -38.19921875 118.72234375 -38.19921875 119.40234375 C-39.86137143 120.74130007 -41.52885482 122.07364517 -43.19921875 123.40234375 C-44.28203125 124.76359375 -44.28203125 124.76359375 -45.38671875 126.15234375 C-45.98484375 126.89484375 -46.58296875 127.63734375 -47.19921875 128.40234375 C-47.85921875 128.40234375 -48.51921875 128.40234375 -49.19921875 128.40234375 C-49.19921875 129.39234375 -49.19921875 130.38234375 -49.19921875 131.40234375 C-50.18921875 131.40234375 -51.17921875 131.40234375 -52.19921875 131.40234375 C-52.52921875 132.39234375 -52.85921875 133.38234375 -53.19921875 134.40234375 C-53.85921875 134.40234375 -54.51921875 134.40234375 -55.19921875 134.40234375 C-55.52921875 135.39234375 -55.85921875 136.38234375 -56.19921875 137.40234375 C-56.85921875 137.40234375 -57.51921875 137.40234375 -58.19921875 137.40234375 C-58.52921875 138.39234375 -58.85921875 139.38234375 -59.19921875 140.40234375 C-59.85921875 140.40234375 -60.51921875 140.40234375 -61.19921875 140.40234375 C-61.19921875 141.06234375 -61.19921875 141.72234375 -61.19921875 142.40234375 C-63.07421875 144.52734375 -63.07421875 144.52734375 -65.19921875 146.40234375 C-65.85921875 146.40234375 -66.51921875 146.40234375 -67.19921875 146.40234375 C-67.19921875 147.06234375 -67.19921875 147.72234375 -67.19921875 148.40234375 C-67.85921875 148.73234375 -68.51921875 149.06234375 -69.19921875 149.40234375 C-69.52921875 150.39234375 -69.85921875 151.38234375 -70.19921875 152.40234375 C-71.18921875 152.40234375 -72.17921875 152.40234375 -73.19921875 152.40234375 C-73.19921875 153.06234375 -73.19921875 153.72234375 -73.19921875 154.40234375 C-74.57421875 156.02734375 -74.57421875 156.02734375 -76.19921875 157.40234375 C-76.85921875 157.40234375 -77.51921875 157.40234375 -78.19921875 157.40234375 C-78.19921875 158.39234375 -78.19921875 159.38234375 -78.19921875 160.40234375 C-79.18921875 160.40234375 -80.17921875 160.40234375 -81.19921875 160.40234375 C-81.52921875 161.39234375 -81.85921875 162.38234375 -82.19921875 163.40234375 C-82.85921875 163.40234375 -83.51921875 163.40234375 -84.19921875 163.40234375 C-84.52921875 164.39234375 -84.85921875 165.38234375 -85.19921875 166.40234375 C-85.85921875 166.40234375 -86.51921875 166.40234375 -87.19921875 166.40234375 C-87.52921875 167.39234375 -87.85921875 168.38234375 -88.19921875 169.40234375 C-88.85921875 169.40234375 -89.51921875 169.40234375 -90.19921875 169.40234375 C-90.52921875 170.39234375 -90.85921875 171.38234375 -91.19921875 172.40234375 C-91.85921875 172.40234375 -92.51921875 172.40234375 -93.19921875 172.40234375 C-93.19921875 173.39234375 -93.19921875 174.38234375 -93.19921875 175.40234375 C-94.18921875 175.40234375 -95.17921875 175.40234375 -96.19921875 175.40234375 C-96.19921875 176.06234375 -96.19921875 176.72234375 -96.19921875 177.40234375 C-96.85921875 177.73234375 -97.51921875 178.06234375 -98.19921875 178.40234375 C-98.52921875 179.39234375 -98.85921875 180.38234375 -99.19921875 181.40234375 C-99.85921875 181.40234375 -100.51921875 181.40234375 -101.19921875 181.40234375 C-101.19921875 182.06234375 -101.19921875 182.72234375 -101.19921875 183.40234375 C-102.18921875 183.73234375 -103.17921875 184.06234375 -104.19921875 184.40234375 C-104.52921875 185.06234375 -104.85921875 185.72234375 -105.19921875 186.40234375 C-105.85921875 186.40234375 -106.51921875 186.40234375 -107.19921875 186.40234375 C-107.52921875 187.39234375 -107.85921875 188.38234375 -108.19921875 189.40234375 C-108.85921875 189.40234375 -109.51921875 189.40234375 -110.19921875 189.40234375 C-110.52921875 190.39234375 -110.85921875 191.38234375 -111.19921875 192.40234375 C-111.85921875 192.40234375 -112.51921875 192.40234375 -113.19921875 192.40234375 C-113.52921875 193.39234375 -113.85921875 194.38234375 -114.19921875 195.40234375 C-114.85921875 195.40234375 -115.51921875 195.40234375 -116.19921875 195.40234375 C-116.52921875 196.39234375 -116.85921875 197.38234375 -117.19921875 198.40234375 C-117.85921875 198.40234375 -118.51921875 198.40234375 -119.19921875 198.40234375 C-119.52921875 199.39234375 -119.85921875 200.38234375 -120.19921875 201.40234375 C-120.85921875 201.40234375 -121.51921875 201.40234375 -122.19921875 201.40234375 C-122.19921875 202.39234375 -122.19921875 203.38234375 -122.19921875 204.40234375 C-123.18921875 204.40234375 -124.17921875 204.40234375 -125.19921875 204.40234375 C-125.19921875 205.06234375 -125.19921875 205.72234375 -125.19921875 206.40234375 C-126.86137143 207.74130007 -128.52885482 209.07364517 -130.19921875 210.40234375 C-131.28203125 211.76359375 -131.28203125 211.76359375 -132.38671875 213.15234375 C-132.98484375 213.89484375 -133.58296875 214.63734375 -134.19921875 215.40234375 C-134.85921875 215.40234375 -135.51921875 215.40234375 -136.19921875 215.40234375 C-136.52921875 216.39234375 -136.85921875 217.38234375 -137.19921875 218.40234375 C-137.85921875 218.40234375 -138.51921875 218.40234375 -139.19921875 218.40234375 C-139.52921875 219.39234375 -139.85921875 220.38234375 -140.19921875 221.40234375 C-140.85921875 221.40234375 -141.51921875 221.40234375 -142.19921875 221.40234375 C-142.52921875 222.39234375 -142.85921875 223.38234375 -143.19921875 224.40234375 C-143.85921875 224.40234375 -144.51921875 224.40234375 -145.19921875 224.40234375 C-145.52921875 225.39234375 -145.85921875 226.38234375 -146.19921875 227.40234375 C-146.85921875 227.40234375 -147.51921875 227.40234375 -148.19921875 227.40234375 C-148.19921875 228.39234375 -148.19921875 229.38234375 -148.19921875 230.40234375 C-149.18921875 230.40234375 -150.17921875 230.40234375 -151.19921875 230.40234375 C-151.19921875 231.06234375 -151.19921875 231.72234375 -151.19921875 232.40234375 C-152.86137143 233.74130007 -154.52885482 235.07364517 -156.19921875 236.40234375 C-157.28203125 237.76359375 -157.28203125 237.76359375 -158.38671875 239.15234375 C-158.98484375 239.89484375 -159.58296875 240.63734375 -160.19921875 241.40234375 C-160.85921875 241.40234375 -161.51921875 241.40234375 -162.19921875 241.40234375 C-162.19921875 242.39234375 -162.19921875 243.38234375 -162.19921875 244.40234375 C-163.18921875 244.40234375 -164.17921875 244.40234375 -165.19921875 244.40234375 C-165.52921875 245.39234375 -165.85921875 246.38234375 -166.19921875 247.40234375 C-166.85921875 247.40234375 -167.51921875 247.40234375 -168.19921875 247.40234375 C-168.52921875 248.39234375 -168.85921875 249.38234375 -169.19921875 250.40234375 C-169.85921875 250.40234375 -170.51921875 250.40234375 -171.19921875 250.40234375 C-171.52921875 251.39234375 -171.85921875 252.38234375 -172.19921875 253.40234375 C-172.85921875 253.40234375 -173.51921875 253.40234375 -174.19921875 253.40234375 C-174.52921875 254.39234375 -174.85921875 255.38234375 -175.19921875 256.40234375 C-175.85921875 256.40234375 -176.51921875 256.40234375 -177.19921875 256.40234375 C-177.19921875 257.39234375 -177.19921875 258.38234375 -177.19921875 259.40234375 C-178.18921875 259.40234375 -179.17921875 259.40234375 -180.19921875 259.40234375 C-180.19921875 260.06234375 -180.19921875 260.72234375 -180.19921875 261.40234375 C-180.85921875 261.73234375 -181.51921875 262.06234375 -182.19921875 262.40234375 C-182.52921875 263.39234375 -182.85921875 264.38234375 -183.19921875 265.40234375 C-183.85921875 265.40234375 -184.51921875 265.40234375 -185.19921875 265.40234375 C-185.19921875 266.06234375 -185.19921875 266.72234375 -185.19921875 267.40234375 C-186.18921875 267.73234375 -187.17921875 268.06234375 -188.19921875 268.40234375 C-188.52921875 269.06234375 -188.85921875 269.72234375 -189.19921875 270.40234375 C-189.85921875 270.40234375 -190.51921875 270.40234375 -191.19921875 270.40234375 C-191.19921875 271.39234375 -191.19921875 272.38234375 -191.19921875 273.40234375 C-192.18921875 273.40234375 -193.17921875 273.40234375 -194.19921875 273.40234375 C-194.52921875 274.39234375 -194.85921875 275.38234375 -195.19921875 276.40234375 C-195.85921875 276.40234375 -196.51921875 276.40234375 -197.19921875 276.40234375 C-197.52921875 277.39234375 -197.85921875 278.38234375 -198.19921875 279.40234375 C-198.85921875 279.40234375 -199.51921875 279.40234375 -200.19921875 279.40234375 C-200.52921875 280.39234375 -200.85921875 281.38234375 -201.19921875 282.40234375 C-201.85921875 282.40234375 -202.51921875 282.40234375 -203.19921875 282.40234375 C-203.52921875 283.39234375 -203.85921875 284.38234375 -204.19921875 285.40234375 C-204.85921875 285.40234375 -205.51921875 285.40234375 -206.19921875 285.40234375 C-206.19921875 286.39234375 -206.19921875 287.38234375 -206.19921875 288.40234375 C-207.18921875 288.40234375 -208.17921875 288.40234375 -209.19921875 288.40234375 C-209.19921875 289.06234375 -209.19921875 289.72234375 -209.19921875 290.40234375 C-209.85921875 290.73234375 -210.51921875 291.06234375 -211.19921875 291.40234375 C-211.52921875 292.39234375 -211.85921875 293.38234375 -212.19921875 294.40234375 C-212.85921875 294.40234375 -213.51921875 294.40234375 -214.19921875 294.40234375 C-214.19921875 295.06234375 -214.19921875 295.72234375 -214.19921875 296.40234375 C-215.18921875 296.73234375 -216.17921875 297.06234375 -217.19921875 297.40234375 C-217.52921875 298.06234375 -217.85921875 298.72234375 -218.19921875 299.40234375 C-218.85921875 299.40234375 -219.51921875 299.40234375 -220.19921875 299.40234375 C-220.52921875 300.39234375 -220.85921875 301.38234375 -221.19921875 302.40234375 C-221.85921875 302.40234375 -222.51921875 302.40234375 -223.19921875 302.40234375 C-223.52921875 303.39234375 -223.85921875 304.38234375 -224.19921875 305.40234375 C-224.85921875 305.40234375 -225.51921875 305.40234375 -226.19921875 305.40234375 C-226.52921875 306.39234375 -226.85921875 307.38234375 -227.19921875 308.40234375 C-227.85921875 308.40234375 -228.51921875 308.40234375 -229.19921875 308.40234375 C-229.52921875 309.39234375 -229.85921875 310.38234375 -230.19921875 311.40234375 C-230.85921875 311.40234375 -231.51921875 311.40234375 -232.19921875 311.40234375 C-232.52921875 312.39234375 -232.85921875 313.38234375 -233.19921875 314.40234375 C-233.85921875 314.40234375 -234.51921875 314.40234375 -235.19921875 314.40234375 C-235.19921875 315.39234375 -235.19921875 316.38234375 -235.19921875 317.40234375 C-236.18921875 317.40234375 -237.17921875 317.40234375 -238.19921875 317.40234375 C-238.19921875 318.06234375 -238.19921875 318.72234375 -238.19921875 319.40234375 C-239.6953125 320.62109375 -239.6953125 320.62109375 -241.63671875 321.90234375 C-244.42453722 323.68888005 -244.42453722 323.68888005 -246.19921875 326.40234375 C-247.18921875 326.40234375 -248.17921875 326.40234375 -249.19921875 326.40234375 C-249.19921875 327.06234375 -249.19921875 327.72234375 -249.19921875 328.40234375 C-250.73255859 328.54542969 -250.73255859 328.54542969 -252.296875 328.69140625 C-256.40696165 329.44019081 -259.0414053 330.69144586 -262.63671875 332.77734375 C-275.99812543 340.22568195 -289.30299764 342.92103555 -304.57714844 342.73852539 C-306.72498107 342.71455625 -308.87159532 342.71804002 -311.01953125 342.72460938 C-322.16424583 342.67973857 -322.16424583 342.67973857 -327.19921875 340.40234375 C-329.16068379 339.92001628 -331.12228599 339.43819101 -333.0859375 338.96484375 C-341.37283882 336.75908813 -348.78392703 332.78494244 -356.07421875 328.33984375 C-356.96367188 327.81293945 -356.96367188 327.81293945 -357.87109375 327.27539062 C-359.34976093 326.37422134 -360.77981635 325.39424068 -362.19921875 324.40234375 C-362.19921875 323.74234375 -362.19921875 323.08234375 -362.19921875 322.40234375 C-363.00359375 322.06203125 -363.00359375 322.06203125 -363.82421875 321.71484375 C-367.02382036 319.94664286 -369.48959098 317.86564172 -372.19921875 315.40234375 C-372.19921875 314.74234375 -372.19921875 314.08234375 -372.19921875 313.40234375 C-373.18921875 313.07234375 -374.17921875 312.74234375 -375.19921875 312.40234375 C-375.19921875 311.74234375 -375.19921875 311.08234375 -375.19921875 310.40234375 C-375.85921875 310.40234375 -376.51921875 310.40234375 -377.19921875 310.40234375 C-378.53817507 308.74019107 -379.87052017 307.07270768 -381.19921875 305.40234375 C-382.84924703 304.04847439 -384.51665745 302.71556233 -386.19921875 301.40234375 C-391.03438359 296.89684924 -391.03438359 296.89684924 -392.19921875 293.40234375 C-393.18921875 293.07234375 -394.17921875 292.74234375 -395.19921875 292.40234375 C-395.19921875 291.74234375 -395.19921875 291.08234375 -395.19921875 290.40234375 C-396.18921875 290.07234375 -397.17921875 289.74234375 -398.19921875 289.40234375 C-398.19921875 288.74234375 -398.19921875 288.08234375 -398.19921875 287.40234375 C-399.18921875 287.07234375 -400.17921875 286.74234375 -401.19921875 286.40234375 C-401.19921875 285.74234375 -401.19921875 285.08234375 -401.19921875 284.40234375 C-402.18921875 284.07234375 -403.17921875 283.74234375 -404.19921875 283.40234375 C-404.19921875 282.74234375 -404.19921875 282.08234375 -404.19921875 281.40234375 C-404.85921875 281.40234375 -405.51921875 281.40234375 -406.19921875 281.40234375 C-407.53817507 279.74019107 -408.87052017 278.07270768 -410.19921875 276.40234375 C-411.8421707 275.03989579 -413.50746212 273.703695 -415.19921875 272.40234375 C-417.01171875 270.77734375 -417.01171875 270.77734375 -418.19921875 269.40234375 C-418.19921875 268.74234375 -418.19921875 268.08234375 -418.19921875 267.40234375 C-419.18921875 267.07234375 -420.17921875 266.74234375 -421.19921875 266.40234375 C-421.19921875 265.74234375 -421.19921875 265.08234375 -421.19921875 264.40234375 C-422.18921875 264.07234375 -423.17921875 263.74234375 -424.19921875 263.40234375 C-424.19921875 262.74234375 -424.19921875 262.08234375 -424.19921875 261.40234375 C-425.18921875 261.07234375 -426.17921875 260.74234375 -427.19921875 260.40234375 C-428.88671875 258.96484375 -428.88671875 258.96484375 -430.19921875 257.40234375 C-430.19921875 256.74234375 -430.19921875 256.08234375 -430.19921875 255.40234375 C-430.85921875 255.40234375 -431.51921875 255.40234375 -432.19921875 255.40234375 C-433.53817507 253.74019107 -434.87052017 252.07270768 -436.19921875 250.40234375 C-437.02421875 249.74234375 -437.84921875 249.08234375 -438.69921875 248.40234375 C-441.31756307 246.30766829 -443.1385764 244.03143916 -445.19921875 241.40234375 C-445.85921875 241.07234375 -446.51921875 240.74234375 -447.19921875 240.40234375 C-447.19921875 239.74234375 -447.19921875 239.08234375 -447.19921875 238.40234375 C-448.18921875 238.07234375 -449.17921875 237.74234375 -450.19921875 237.40234375 C-451.88671875 235.96484375 -451.88671875 235.96484375 -453.19921875 234.40234375 C-453.19921875 233.74234375 -453.19921875 233.08234375 -453.19921875 232.40234375 C-453.85921875 232.40234375 -454.51921875 232.40234375 -455.19921875 232.40234375 C-457.32421875 230.52734375 -457.32421875 230.52734375 -459.19921875 228.40234375 C-459.19921875 227.74234375 -459.19921875 227.08234375 -459.19921875 226.40234375 C-459.85921875 226.40234375 -460.51921875 226.40234375 -461.19921875 226.40234375 C-462.53817507 224.74019107 -463.87052017 223.07270768 -465.19921875 221.40234375 C-466.02421875 220.74234375 -466.84921875 220.08234375 -467.69921875 219.40234375 C-470.31756307 217.30766829 -472.1385764 215.03143916 -474.19921875 212.40234375 C-474.85921875 212.07234375 -475.51921875 211.74234375 -476.19921875 211.40234375 C-476.19921875 210.74234375 -476.19921875 210.08234375 -476.19921875 209.40234375 C-476.85921875 209.40234375 -477.51921875 209.40234375 -478.19921875 209.40234375 C-480.32421875 207.52734375 -480.32421875 207.52734375 -482.19921875 205.40234375 C-482.19921875 204.74234375 -482.19921875 204.08234375 -482.19921875 203.40234375 C-483.18921875 203.07234375 -484.17921875 202.74234375 -485.19921875 202.40234375 C-485.19921875 201.74234375 -485.19921875 201.08234375 -485.19921875 200.40234375 C-486.18921875 200.07234375 -487.17921875 199.74234375 -488.19921875 199.40234375 C-488.19921875 198.74234375 -488.19921875 198.08234375 -488.19921875 197.40234375 C-488.85921875 197.40234375 -489.51921875 197.40234375 -490.19921875 197.40234375 C-491.75 195.79296875 -491.75 195.79296875 -493.51171875 193.65234375 C-496.1868411 190.48473026 -498.93847561 187.9714141 -502.19921875 185.40234375 C-502.19921875 184.74234375 -502.19921875 184.08234375 -502.19921875 183.40234375 C-503.18921875 183.07234375 -504.17921875 182.74234375 -505.19921875 182.40234375 C-505.19921875 181.74234375 -505.19921875 181.08234375 -505.19921875 180.40234375 C-506.18921875 180.07234375 -507.17921875 179.74234375 -508.19921875 179.40234375 C-508.19921875 178.74234375 -508.19921875 178.08234375 -508.19921875 177.40234375 C-509.18921875 177.07234375 -510.17921875 176.74234375 -511.19921875 176.40234375 C-511.19921875 175.74234375 -511.19921875 175.08234375 -511.19921875 174.40234375 C-512.18921875 174.07234375 -513.17921875 173.74234375 -514.19921875 173.40234375 C-514.19921875 172.74234375 -514.19921875 172.08234375 -514.19921875 171.40234375 C-515.18921875 171.07234375 -516.17921875 170.74234375 -517.19921875 170.40234375 C-517.19921875 169.74234375 -517.19921875 169.08234375 -517.19921875 168.40234375 C-517.85921875 168.40234375 -518.51921875 168.40234375 -519.19921875 168.40234375 C-520.56098797 166.75882918 -521.88883941 165.08711719 -523.19921875 163.40234375 C-523.98296875 162.70109375 -524.76671875 161.99984375 -525.57421875 161.27734375 C-535.1519326 150.78746667 -536.85832083 139.22771319 -536.57421875 125.625 C-536.05540327 115.25054337 -530.99902933 106.14419357 -524.19921875 98.40234375 C-523.53921875 98.40234375 -522.87921875 98.40234375 -522.19921875 98.40234375 C-522.19921875 97.74234375 -522.19921875 97.08234375 -522.19921875 96.40234375 C-518.74321462 93.73478163 -514.97371441 91.58629807 -511.19921875 89.40234375 C-510.46703125 88.95761719 -509.73484375 88.51289062 -508.98046875 88.0546875 C-499.6487056 83.33808982 -486.43436532 83.85996539 -476.48828125 86.3203125 C-473.54842472 87.48794189 -470.91683672 88.78770962 -468.19921875 90.40234375 C-467.30203125 90.92957031 -466.40484375 91.45679688 -465.48046875 92 C-461.16113928 94.71291218 -461.16113928 94.71291218 -459.19921875 96.40234375 C-459.19921875 97.06234375 -459.19921875 97.72234375 -459.19921875 98.40234375 C-457.21921875 99.39234375 -457.21921875 99.39234375 -455.19921875 100.40234375 C-455.19921875 101.06234375 -455.19921875 101.72234375 -455.19921875 102.40234375 C-454.53921875 102.40234375 -453.87921875 102.40234375 -453.19921875 102.40234375 C-453.19921875 103.06234375 -453.19921875 103.72234375 -453.19921875 104.40234375 C-451.71421875 104.89734375 -451.71421875 104.89734375 -450.19921875 105.40234375 C-450.19921875 106.06234375 -450.19921875 106.72234375 -450.19921875 107.40234375 C-448.71421875 107.89734375 -448.71421875 107.89734375 -447.19921875 108.40234375 C-447.19921875 109.06234375 -447.19921875 109.72234375 -447.19921875 110.40234375 C-446.08546875 110.48484375 -444.97171875 110.56734375 -443.82421875 110.65234375 C-440.19921875 111.40234375 -440.19921875 111.40234375 -438.76171875 113.46484375 C-438.57609375 114.10421875 -438.39046875 114.74359375 -438.19921875 115.40234375 C-437.20921875 115.40234375 -436.21921875 115.40234375 -435.19921875 115.40234375 C-435.19921875 116.39234375 -435.19921875 117.38234375 -435.19921875 118.40234375 C-433.71421875 118.89734375 -433.71421875 118.89734375 -432.19921875 119.40234375 C-432.19921875 120.06234375 -432.19921875 120.72234375 -432.19921875 121.40234375 C-431.64234375 121.64984375 -431.08546875 121.89734375 -430.51171875 122.15234375 C-427.75761396 123.64104904 -425.50747361 125.28644347 -423.19921875 127.40234375 C-423.19921875 128.39234375 -423.19921875 129.38234375 -423.19921875 130.40234375 C-422.20921875 130.40234375 -421.21921875 130.40234375 -420.19921875 130.40234375 C-420.19921875 131.39234375 -420.19921875 132.38234375 -420.19921875 133.40234375 C-419.20921875 133.40234375 -418.21921875 133.40234375 -417.19921875 133.40234375 C-417.19921875 134.06234375 -417.19921875 134.72234375 -417.19921875 135.40234375 C-416.20921875 135.73234375 -415.21921875 136.06234375 -414.19921875 136.40234375 C-414.19921875 137.39234375 -414.19921875 138.38234375 -414.19921875 139.40234375 C-413.20921875 139.40234375 -412.21921875 139.40234375 -411.19921875 139.40234375 C-411.19921875 140.06234375 -411.19921875 140.72234375 -411.19921875 141.40234375 C-410.53921875 141.40234375 -409.87921875 141.40234375 -409.19921875 141.40234375 C-409.19921875 142.39234375 -409.19921875 143.38234375 -409.19921875 144.40234375 C-408.58046875 144.64984375 -407.96171875 144.89734375 -407.32421875 145.15234375 C-404.84853188 146.60863014 -404.24796873 147.78046881 -403.19921875 150.40234375 C-402.20921875 150.40234375 -401.21921875 150.40234375 -400.19921875 150.40234375 C-400.19921875 151.39234375 -400.19921875 152.38234375 -400.19921875 153.40234375 C-399.20921875 153.40234375 -398.21921875 153.40234375 -397.19921875 153.40234375 C-397.19921875 154.39234375 -397.19921875 155.38234375 -397.19921875 156.40234375 C-396.20921875 156.40234375 -395.21921875 156.40234375 -394.19921875 156.40234375 C-394.19921875 157.39234375 -394.19921875 158.38234375 -394.19921875 159.40234375 C-393.20921875 159.40234375 -392.21921875 159.40234375 -391.19921875 159.40234375 C-391.19921875 160.39234375 -391.19921875 161.38234375 -391.19921875 162.40234375 C-390.20921875 162.40234375 -389.21921875 162.40234375 -388.19921875 162.40234375 C-388.19921875 163.06234375 -388.19921875 163.72234375 -388.19921875 164.40234375 C-387.20921875 164.73234375 -386.21921875 165.06234375 -385.19921875 165.40234375 C-384.53255208 167.06901042 -383.86588542 168.73567708 -383.19921875 170.40234375 C-382.20921875 170.73234375 -381.21921875 171.06234375 -380.19921875 171.40234375 C-380.19921875 172.06234375 -380.19921875 172.72234375 -380.19921875 173.40234375 C-379.20921875 173.73234375 -378.21921875 174.06234375 -377.19921875 174.40234375 C-377.19921875 175.06234375 -377.19921875 175.72234375 -377.19921875 176.40234375 C-376.20921875 176.73234375 -375.21921875 177.06234375 -374.19921875 177.40234375 C-374.19921875 178.06234375 -374.19921875 178.72234375 -374.19921875 179.40234375 C-373.20921875 179.40234375 -372.21921875 179.40234375 -371.19921875 179.40234375 C-369.59375 180.86328125 -369.59375 180.86328125 -368.01171875 182.77734375 C-367.48191406 183.40382813 -366.95210937 184.0303125 -366.40625 184.67578125 C-365.19921875 186.40234375 -365.19921875 186.40234375 -365.19921875 188.40234375 C-364.20921875 188.40234375 -363.21921875 188.40234375 -362.19921875 188.40234375 C-362.19921875 189.06234375 -362.19921875 189.72234375 -362.19921875 190.40234375 C-361.20921875 190.73234375 -360.21921875 191.06234375 -359.19921875 191.40234375 C-359.19921875 192.06234375 -359.19921875 192.72234375 -359.19921875 193.40234375 C-358.20921875 193.73234375 -357.21921875 194.06234375 -356.19921875 194.40234375 C-355.53255208 196.06901042 -354.86588542 197.73567708 -354.19921875 199.40234375 C-353.20921875 199.73234375 -352.21921875 200.06234375 -351.19921875 200.40234375 C-351.19921875 201.06234375 -351.19921875 201.72234375 -351.19921875 202.40234375 C-350.20921875 202.73234375 -349.21921875 203.06234375 -348.19921875 203.40234375 C-348.19921875 204.06234375 -348.19921875 204.72234375 -348.19921875 205.40234375 C-347.64234375 205.64984375 -347.08546875 205.89734375 -346.51171875 206.15234375 C-342.25207951 208.45485145 -338.80128174 211.29382324 -336.19921875 215.40234375 C-336.19921875 216.06234375 -336.19921875 216.72234375 -336.19921875 217.40234375 C-335.20921875 217.40234375 -334.21921875 217.40234375 -333.19921875 217.40234375 C-333.19921875 218.06234375 -333.19921875 218.72234375 -333.19921875 219.40234375 C-332.20921875 219.73234375 -331.21921875 220.06234375 -330.19921875 220.40234375 C-330.19921875 221.06234375 -330.19921875 221.72234375 -330.19921875 222.40234375 C-329.20921875 222.73234375 -328.21921875 223.06234375 -327.19921875 223.40234375 C-326.88984375 224.20671875 -326.58046875 225.01109375 -326.26171875 225.83984375 C-324.97978962 228.93155519 -324.11050186 229.03767979 -321.19921875 230.40234375 C-319.94921875 232.52734375 -319.94921875 232.52734375 -319.19921875 234.40234375 C-318.20921875 234.40234375 -317.21921875 234.40234375 -316.19921875 234.40234375 C-314.82053594 236.03169616 -313.48647782 237.69983982 -312.19921875 239.40234375 C-311.53921875 239.73234375 -310.87921875 240.06234375 -310.19921875 240.40234375 C-310.19921875 241.39234375 -310.19921875 242.38234375 -310.19921875 243.40234375 C-309.20921875 243.40234375 -308.21921875 243.40234375 -307.19921875 243.40234375 C-307.19921875 244.06234375 -307.19921875 244.72234375 -307.19921875 245.40234375 C-300.60273441 243.32916296 -296.91779147 238.17426035 -292.62890625 233.05078125 C-289.73911237 229.71883311 -289.73911237 229.71883311 -288.19921875 228.40234375 C-287.20921875 228.40234375 -286.21921875 228.40234375 -285.19921875 228.40234375 C-285.19921875 227.41234375 -285.19921875 226.42234375 -285.19921875 225.40234375 C-284.53921875 225.40234375 -283.87921875 225.40234375 -283.19921875 225.40234375 C-283.19921875 224.74234375 -283.19921875 224.08234375 -283.19921875 223.40234375 C-282.20921875 223.40234375 -281.21921875 223.40234375 -280.19921875 223.40234375 C-279.86921875 222.08234375 -279.53921875 220.76234375 -279.19921875 219.40234375 C-278.53921875 219.40234375 -277.87921875 219.40234375 -277.19921875 219.40234375 C-277.19921875 218.74234375 -277.19921875 218.08234375 -277.19921875 217.40234375 C-275.55570418 216.04057453 -273.88399219 214.71272309 -272.19921875 213.40234375 C-269.44565942 210.78646239 -267.14426192 208.32448824 -264.94921875 205.21484375 C-261.67255757 201.863713 -259.60770626 201.48286786 -255.08984375 200.921875 C-254.15398437 200.66470703 -254.15398437 200.66470703 -253.19921875 200.40234375 C-252.86921875 199.41234375 -252.53921875 198.42234375 -252.19921875 197.40234375 C-251.53921875 197.40234375 -250.87921875 197.40234375 -250.19921875 197.40234375 C-249.86921875 196.41234375 -249.53921875 195.42234375 -249.19921875 194.40234375 C-248.53921875 194.40234375 -247.87921875 194.40234375 -247.19921875 194.40234375 C-246.95171875 193.78359375 -246.70421875 193.16484375 -246.44921875 192.52734375 C-244.96181506 189.99875748 -243.76243866 189.68395371 -241.19921875 188.40234375 C-240.51653737 187.07713872 -239.84851465 185.74422193 -239.19921875 184.40234375 C-238.20921875 184.07234375 -237.21921875 183.74234375 -236.19921875 183.40234375 C-235.86921875 182.41234375 -235.53921875 181.42234375 -235.19921875 180.40234375 C-234.53921875 180.40234375 -233.87921875 180.40234375 -233.19921875 180.40234375 C-232.86921875 179.41234375 -232.53921875 178.42234375 -232.19921875 177.40234375 C-231.53921875 177.40234375 -230.87921875 177.40234375 -230.19921875 177.40234375 C-229.86921875 176.41234375 -229.53921875 175.42234375 -229.19921875 174.40234375 C-228.53921875 174.40234375 -227.87921875 174.40234375 -227.19921875 174.40234375 C-226.86921875 173.41234375 -226.53921875 172.42234375 -226.19921875 171.40234375 C-225.53921875 171.40234375 -224.87921875 171.40234375 -224.19921875 171.40234375 C-223.95171875 170.78359375 -223.70421875 170.16484375 -223.44921875 169.52734375 C-221.96181506 166.99875748 -220.76243866 166.68395371 -218.19921875 165.40234375 C-217.86921875 164.74234375 -217.53921875 164.08234375 -217.19921875 163.40234375 C-215.93499111 160.87388847 -214.67076347 160.63811611 -212.19921875 159.40234375 C-211.49770723 158.08700965 -210.8339595 156.75116783 -210.19921875 155.40234375 C-208.19921875 153.15234375 -208.19921875 153.15234375 -206.19921875 151.40234375 C-205.53921875 151.40234375 -204.87921875 151.40234375 -204.19921875 151.40234375 C-203.86921875 150.41234375 -203.53921875 149.42234375 -203.19921875 148.40234375 C-202.53921875 148.40234375 -201.87921875 148.40234375 -201.19921875 148.40234375 C-200.95171875 147.78359375 -200.70421875 147.16484375 -200.44921875 146.52734375 C-198.97151113 144.01524079 -197.75966698 143.64127031 -195.19921875 142.40234375 C-194.86921875 141.41234375 -194.53921875 140.42234375 -194.19921875 139.40234375 C-193.53921875 139.40234375 -192.87921875 139.40234375 -192.19921875 139.40234375 C-191.86921875 138.41234375 -191.53921875 137.42234375 -191.19921875 136.40234375 C-190.53921875 136.40234375 -189.87921875 136.40234375 -189.19921875 136.40234375 C-188.86921875 135.41234375 -188.53921875 134.42234375 -188.19921875 133.40234375 C-187.53921875 133.40234375 -186.87921875 133.40234375 -186.19921875 133.40234375 C-185.86921875 132.41234375 -185.53921875 131.42234375 -185.19921875 130.40234375 C-184.53921875 130.40234375 -183.87921875 130.40234375 -183.19921875 130.40234375 C-182.93109375 129.76296875 -182.66296875 129.12359375 -182.38671875 128.46484375 C-181.19921875 126.40234375 -181.19921875 126.40234375 -178.19921875 125.40234375 C-177.88984375 124.76296875 -177.58046875 124.12359375 -177.26171875 123.46484375 C-175.94867533 120.91599475 -174.7154696 120.61988448 -172.19921875 119.40234375 C-171.86921875 118.41234375 -171.53921875 117.42234375 -171.19921875 116.40234375 C-170.53921875 116.40234375 -169.87921875 116.40234375 -169.19921875 116.40234375 C-168.86921875 115.41234375 -168.53921875 114.42234375 -168.19921875 113.40234375 C-167.53921875 113.40234375 -166.87921875 113.40234375 -166.19921875 113.40234375 C-165.86921875 112.41234375 -165.53921875 111.42234375 -165.19921875 110.40234375 C-164.53921875 110.40234375 -163.87921875 110.40234375 -163.19921875 110.40234375 C-162.86921875 109.41234375 -162.53921875 108.42234375 -162.19921875 107.40234375 C-161.53921875 107.40234375 -160.87921875 107.40234375 -160.19921875 107.40234375 C-159.86921875 106.41234375 -159.53921875 105.42234375 -159.19921875 104.40234375 C-158.53921875 104.40234375 -157.87921875 104.40234375 -157.19921875 104.40234375 C-156.8125 103.52835938 -156.8125 103.52835938 -156.41796875 102.63671875 C-155.10087858 100.22205345 -153.64833491 98.58494198 -151.69921875 96.65234375 C-151.09078125 96.03875 -150.48234375 95.42515625 -149.85546875 94.79296875 C-148.19921875 93.40234375 -148.19921875 93.40234375 -146.19921875 93.40234375 C-145.86921875 92.41234375 -145.53921875 91.42234375 -145.19921875 90.40234375 C-144.53921875 90.40234375 -143.87921875 90.40234375 -143.19921875 90.40234375 C-142.86921875 89.41234375 -142.53921875 88.42234375 -142.19921875 87.40234375 C-141.53921875 87.40234375 -140.87921875 87.40234375 -140.19921875 87.40234375 C-139.86921875 86.41234375 -139.53921875 85.42234375 -139.19921875 84.40234375 C-138.53921875 84.40234375 -137.87921875 84.40234375 -137.19921875 84.40234375 C-136.86921875 83.41234375 -136.53921875 82.42234375 -136.19921875 81.40234375 C-135.53921875 81.40234375 -134.87921875 81.40234375 -134.19921875 81.40234375 C-133.95171875 80.78359375 -133.70421875 80.16484375 -133.44921875 79.52734375 C-131.96181506 76.99875748 -130.76243866 76.68395371 -128.19921875 75.40234375 C-127.49770723 74.08700965 -126.8339595 72.75116783 -126.19921875 71.40234375 C-124.19921875 69.15234375 -124.19921875 69.15234375 -122.19921875 67.40234375 C-121.53921875 67.40234375 -120.87921875 67.40234375 -120.19921875 67.40234375 C-119.86921875 66.41234375 -119.53921875 65.42234375 -119.19921875 64.40234375 C-118.53921875 64.40234375 -117.87921875 64.40234375 -117.19921875 64.40234375 C-116.86921875 63.41234375 -116.53921875 62.42234375 -116.19921875 61.40234375 C-115.53921875 61.40234375 -114.87921875 61.40234375 -114.19921875 61.40234375 C-113.86921875 60.41234375 -113.53921875 59.42234375 -113.19921875 58.40234375 C-112.53921875 58.40234375 -111.87921875 58.40234375 -111.19921875 58.40234375 C-110.95171875 57.78359375 -110.70421875 57.16484375 -110.44921875 56.52734375 C-108.96181506 53.99875748 -107.76243866 53.68395371 -105.19921875 52.40234375 C-104.86921875 51.74234375 -104.53921875 51.08234375 -104.19921875 50.40234375 C-102.93499111 47.87388847 -101.67076347 47.63811611 -99.19921875 46.40234375 C-98.51653737 45.07713872 -97.84851465 43.74422193 -97.19921875 42.40234375 C-95.71421875 41.90734375 -95.71421875 41.90734375 -94.19921875 41.40234375 C-93.86921875 40.41234375 -93.53921875 39.42234375 -93.19921875 38.40234375 C-92.53921875 38.40234375 -91.87921875 38.40234375 -91.19921875 38.40234375 C-90.86921875 37.41234375 -90.53921875 36.42234375 -90.19921875 35.40234375 C-89.53921875 35.40234375 -88.87921875 35.40234375 -88.19921875 35.40234375 C-87.82796875 34.47421875 -87.82796875 34.47421875 -87.44921875 33.52734375 C-85.97151113 31.01524079 -84.75966698 30.64127031 -82.19921875 29.40234375 C-81.86921875 28.41234375 -81.53921875 27.42234375 -81.19921875 26.40234375 C-80.53921875 26.40234375 -79.87921875 26.40234375 -79.19921875 26.40234375 C-78.86921875 25.41234375 -78.53921875 24.42234375 -78.19921875 23.40234375 C-77.53921875 23.40234375 -76.87921875 23.40234375 -76.19921875 23.40234375 C-75.86921875 22.41234375 -75.53921875 21.42234375 -75.19921875 20.40234375 C-74.53921875 20.40234375 -73.87921875 20.40234375 -73.19921875 20.40234375 C-72.82796875 19.53609375 -72.82796875 19.53609375 -72.44921875 18.65234375 C-71.01621887 16.07294396 -69.41497199 14.34112783 -67.19921875 12.40234375 C-66.53921875 12.40234375 -65.87921875 12.40234375 -65.19921875 12.40234375 C-64.95171875 11.78359375 -64.70421875 11.16484375 -64.44921875 10.52734375 C-62.97151113 8.01524079 -61.75966698 7.64127031 -59.19921875 6.40234375 C-58.86921875 5.41234375 -58.53921875 4.42234375 -58.19921875 3.40234375 C-40.84437041 -10.77888323 -18.99030538 -11.60682739 0 0 Z " fill="#FFFEFE" transform="translate(1032.19921875,551.59765625)"/>
<path d="M0 0 C0 0.66 0 1.32 0 2 C0.70125 2.061875 1.4025 2.12375 2.125 2.1875 C8.74858684 4.05938324 12.13892206 9.25960034 15.80078125 14.71875 C17.08293941 17.157774 17.59393838 19.28655296 18 22 C18.66 22 19.32 22 20 22 C23.44419134 35.6332574 23.44419134 35.6332574 23 42 C22.34 42 21.68 42 21 42 C20.67 46.29 20.34 50.58 20 55 C19.34 55 18.68 55 18 55 C17.67 56.98 17.34 58.96 17 61 C16.34 61 15.68 61 15 61 C14.89429688 61.58652344 14.78859375 62.17304687 14.6796875 62.77734375 C13.90505777 65.31047199 12.88745202 66.60275858 11.125 68.5625 C10.35542969 69.43068359 10.35542969 69.43068359 9.5703125 70.31640625 C8.79300781 71.14978516 8.79300781 71.14978516 8 72 C7.48179687 72.56589844 6.96359375 73.13179687 6.4296875 73.71484375 C5 75 5 75 3 75 C2.67 75.99 2.34 76.98 2 78 C1.34 78 0.68 78 0 78 C0 78.99 0 79.98 0 81 C-1.3125 82.6875 -1.3125 82.6875 -3 84 C-3.99 84 -4.98 84 -6 84 C-6 84.99 -6 85.98 -6 87 C-6.99 87 -7.98 87 -9 87 C-9 87.99 -9 88.98 -9 90 C-9.99 90 -10.98 90 -12 90 C-12 90.99 -12 91.98 -12 93 C-13.3125 94.6875 -13.3125 94.6875 -15 96 C-15.99 96 -16.98 96 -18 96 C-18.268125 96.5775 -18.53625 97.155 -18.8125 97.75 C-20.0388622 100.07363365 -21.24843434 102.03824646 -23 104 C-23.99 104 -24.98 104 -26 104 C-26.2475 104.556875 -26.495 105.11375 -26.75 105.6875 C-28.82142732 109.51964054 -31.62731263 113.21386696 -35 116 C-35.99 116 -36.98 116 -38 116 C-38 116.99 -38 117.98 -38 119 C-38.99 119 -39.98 119 -41 119 C-41 119.99 -41 120.98 -41 122 C-41.99 122 -42.98 122 -44 122 C-44 122.99 -44 123.98 -44 125 C-44.99 125 -45.98 125 -47 125 C-47 125.99 -47 126.98 -47 128 C-47.99 128 -48.98 128 -50 128 C-50 128.66 -50 129.32 -50 130 C-50.66 130 -51.32 130 -52 130 C-52 130.99 -52 131.98 -52 133 C-52.99 133 -53.98 133 -55 133 C-55.2475 133.556875 -55.495 134.11375 -55.75 134.6875 C-57.23870529 137.44160479 -58.88409972 139.69174514 -61 142 C-61.99 142 -62.98 142 -64 142 C-64 142.99 -64 143.98 -64 145 C-65.62053812 146.38903267 -67.29705213 147.71332828 -69 149 C-69.886875 149.9075 -70.77375 150.815 -71.6875 151.75 C-74 154 -74 154 -76 154 C-76 154.66 -76 155.32 -76 156 C-77.375 157.625 -77.375 157.625 -79 159 C-79.66 159 -80.32 159 -81 159 C-81.33 159.99 -81.66 160.98 -82 162 C-82.66 162 -83.32 162 -84 162 C-84 162.99 -84 163.98 -84 165 C-85.6396721 166.36639342 -87.31110128 167.6949419 -89 169 C-90.36244796 170.64295195 -91.69864875 172.30824337 -93 174 C-94.5625 175.8125 -94.5625 175.8125 -96 177 C-96.99 177 -97.98 177 -99 177 C-99 177.99 -99 178.98 -99 180 C-102.33333333 183 -102.33333333 183 -105 183 C-105 183.66 -105 184.32 -105 185 C-106.375 186.625 -106.375 186.625 -108 188 C-108.66 188 -109.32 188 -110 188 C-110.33 188.99 -110.66 189.98 -111 191 C-111.66 191 -112.32 191 -113 191 C-113 191.99 -113 192.98 -113 194 C-114.6396721 195.36639342 -116.31110128 196.6949419 -118 198 C-119.36244796 199.64295195 -120.69864875 201.30824337 -122 203 C-123.5625 204.8125 -123.5625 204.8125 -125 206 C-125.99 206 -126.98 206 -128 206 C-128 206.99 -128 207.98 -128 209 C-128.99 209 -129.98 209 -131 209 C-131.33 209.99 -131.66 210.98 -132 212 C-132.66 212 -133.32 212 -134 212 C-134 212.66 -134 213.32 -134 214 C-134.66 214 -135.32 214 -136 214 C-136 214.99 -136 215.98 -136 217 C-136.99 217 -137.98 217 -139 217 C-139.2475 217.556875 -139.495 218.11375 -139.75 218.6875 C-142.36225813 223.52017755 -145.76248568 226.60998855 -150 230 C-150.70125 230.9075 -151.4025 231.815 -152.125 232.75 C-152.74375 233.4925 -153.3625 234.235 -154 235 C-154.99 235 -155.98 235 -157 235 C-157 235.99 -157 236.98 -157 238 C-158.3125 239.6875 -158.3125 239.6875 -160 241 C-160.99 241 -161.98 241 -163 241 C-163 241.66 -163 242.32 -163 243 C-163.66 243 -164.32 243 -165 243 C-165 243.99 -165 244.98 -165 246 C-165.99 246 -166.98 246 -168 246 C-168.2475 246.556875 -168.495 247.11375 -168.75 247.6875 C-171.36225813 252.52017755 -174.76248568 255.60998855 -179 259 C-180.36244796 260.64295195 -181.69864875 262.30824337 -183 264 C-184.5625 265.8125 -184.5625 265.8125 -186 267 C-186.99 267 -187.98 267 -189 267 C-189 267.99 -189 268.98 -189 270 C-189.99 270 -190.98 270 -192 270 C-192 270.66 -192 271.32 -192 272 C-192.66 272 -193.32 272 -194 272 C-194.33 272.99 -194.66 273.98 -195 275 C-195.66 275 -196.32 275 -197 275 C-197 275.99 -197 276.98 -197 278 C-198.6396721 279.36639342 -200.31110128 280.6949419 -202 282 C-203.36244796 283.64295195 -204.69864875 285.30824337 -206 287 C-207.5625 288.8125 -207.5625 288.8125 -209 290 C-209.99 290 -210.98 290 -212 290 C-212 290.99 -212 291.98 -212 293 C-215.33333333 296 -215.33333333 296 -218 296 C-218 296.66 -218 297.32 -218 298 C-219.375 299.625 -219.375 299.625 -221 301 C-221.66 301 -222.32 301 -223 301 C-223.33 301.99 -223.66 302.98 -224 304 C-224.66 304 -225.32 304 -226 304 C-226 304.99 -226 305.98 -226 307 C-227.6396721 308.36639342 -229.31110128 309.6949419 -231 311 C-231.70125 311.9075 -232.4025 312.815 -233.125 313.75 C-234.053125 314.86375 -234.053125 314.86375 -235 316 C-235.99 316 -236.98 316 -238 316 C-238.33 316.99 -238.66 317.98 -239 319 C-240.5234375 320.60546875 -240.5234375 320.60546875 -242.375 322.1875 C-242.98085938 322.71730469 -243.58671875 323.24710938 -244.2109375 323.79296875 C-246 325 -246 325 -249 325 C-249.33 325.99 -249.66 326.98 -250 328 C-251.32 328 -252.64 328 -254 328 C-254.33 328.99 -254.66 329.98 -255 331 C-260.64288446 334.80592207 -266.26109896 336.62561661 -273 337 C-273 337.66 -273 338.32 -273 339 C-273.69867187 339.13277344 -274.39734375 339.26554687 -275.1171875 339.40234375 C-276.02726563 339.57894531 -276.93734375 339.75554687 -277.875 339.9375 C-278.77992188 340.11152344 -279.68484375 340.28554688 -280.6171875 340.46484375 C-282.99956317 340.89963701 -282.99956317 340.89963701 -285 342 C-287.32416296 342.08586809 -289.65083307 342.10711043 -291.9765625 342.09765625 C-293.00443375 342.09553383 -293.00443375 342.09553383 -294.05307007 342.09336853 C-296.24375761 342.08776675 -298.4343433 342.07521406 -300.625 342.0625 C-302.10937352 342.05748522 -303.59374865 342.05292228 -305.078125 342.04882812 C-308.71878315 342.03779677 -312.35938164 342.02053099 -316 342 C-316 341.34 -316 340.68 -316 340 C-316.76183594 339.96261719 -317.52367187 339.92523437 -318.30859375 339.88671875 C-324.98678001 339.46151588 -330.78318166 338.49614676 -337 336 C-336.67 335.01 -336.34 334.02 -336 333 C-335.01 333 -334.02 333 -333 333 C-332.67 332.01 -332.34 331.02 -332 330 C-327.54285714 326 -327.54285714 326 -325 326 C-325 325.34 -325 324.68 -325 324 C-324.01 324 -323.02 324 -322 324 C-322 323.01 -322 322.02 -322 321 C-320.3603279 319.63360658 -318.68889872 318.3050581 -317 317 C-316.01 315.7625 -316.01 315.7625 -315 314.5 C-312.90532454 311.88165568 -310.62909541 310.06064235 -308 308 C-307.67 307.34 -307.34 306.68 -307 306 C-306.34 306 -305.68 306 -305 306 C-304.67 305.01 -304.34 304.02 -304 303 C-303.01 303 -302.02 303 -301 303 C-301 302.34 -301 301.68 -301 301 C-300.34 301 -299.68 301 -299 301 C-298.67 299.68 -298.34 298.36 -298 297 C-297.34 297 -296.68 297 -296 297 C-296 296.34 -296 295.68 -296 295 C-295.01 295 -294.02 295 -293 295 C-293 294.01 -293 293.02 -293 292 C-291.3603279 290.63360658 -289.68889872 289.3050581 -288 288 C-286.63755204 286.35704805 -285.30135125 284.69175663 -284 283 C-282.4375 281.1875 -282.4375 281.1875 -281 280 C-280.01 280 -279.02 280 -278 280 C-278 279.01 -278 278.02 -278 277 C-277.34 277 -276.68 277 -276 277 C-275.67 276.01 -275.34 275.02 -275 274 C-274.01 274 -273.02 274 -272 274 C-272 273.34 -272 272.68 -272 272 C-271.34 272 -270.68 272 -270 272 C-269.67 270.68 -269.34 269.36 -269 268 C-268.34 268 -267.68 268 -267 268 C-267 267.34 -267 266.68 -267 266 C-266.01 266 -265.02 266 -264 266 C-264 265.01 -264 264.02 -264 263 C-262.3603279 261.63360658 -260.68889872 260.3050581 -259 259 C-257.63755204 257.35704805 -256.30135125 255.69175663 -255 254 C-253.4375 252.1875 -253.4375 252.1875 -252 251 C-251.01 251 -250.02 251 -249 251 C-249 250.01 -249 249.02 -249 248 C-248.34 248 -247.68 248 -247 248 C-246.67 247.01 -246.34 246.02 -246 245 C-245.34 245 -244.68 245 -244 245 C-243.67 244.01 -243.34 243.02 -243 242 C-242.34 242 -241.68 242 -241 242 C-240.67 241.01 -240.34 240.02 -240 239 C-239.34 239 -238.68 239 -238 239 C-238 238.34 -238 237.68 -238 237 C-237.01 237 -236.02 237 -235 237 C-235 236.01 -235 235.02 -235 234 C-233.3603279 232.63360658 -231.68889872 231.3050581 -230 230 C-228.63755204 228.35704805 -227.30135125 226.69175663 -226 225 C-224.375 223.1875 -224.375 223.1875 -223 222 C-222.34 222 -221.68 222 -221 222 C-220.67 221.01 -220.34 220.02 -220 219 C-219.34 219 -218.68 219 -218 219 C-217.67 218.01 -217.34 217.02 -217 216 C-216.34 216 -215.68 216 -215 216 C-214.67 215.01 -214.34 214.02 -214 213 C-213.34 213 -212.68 213 -212 213 C-212 212.34 -212 211.68 -212 211 C-211.01 211 -210.02 211 -209 211 C-209 210.01 -209 209.02 -209 208 C-207.3603279 206.63360658 -205.68889872 205.3050581 -204 204 C-203.34 203.175 -202.68 202.35 -202 201.5 C-199.90532454 198.88165568 -197.62909541 197.06064235 -195 195 C-194.67 194.34 -194.34 193.68 -194 193 C-193.34 193 -192.68 193 -192 193 C-191.67 192.01 -191.34 191.02 -191 190 C-190.01 190 -189.02 190 -188 190 C-188 189.34 -188 188.68 -188 188 C-187.34 188 -186.68 188 -186 188 C-185.67 186.68 -185.34 185.36 -185 184 C-184.34 184 -183.68 184 -183 184 C-183 183.34 -183 182.68 -183 182 C-182.01 182 -181.02 182 -180 182 C-180 181.01 -180 180.02 -180 179 C-178.3603279 177.63360658 -176.68889872 176.3050581 -175 175 C-173.63755204 173.35704805 -172.30135125 171.69175663 -171 170 C-169.4375 168.1875 -169.4375 168.1875 -168 167 C-167.01 167 -166.02 167 -165 167 C-165 166.01 -165 165.02 -165 164 C-164.34 164 -163.68 164 -163 164 C-162.67 163.01 -162.34 162.02 -162 161 C-161.34 161 -160.68 161 -160 161 C-160 160.34 -160 159.68 -160 159 C-159.01 159 -158.02 159 -157 159 C-156.67 157.68 -156.34 156.36 -156 155 C-155.34 155 -154.68 155 -154 155 C-154 154.34 -154 153.68 -154 153 C-152.125 150.875 -152.125 150.875 -150 149 C-149.34 149 -148.68 149 -148 149 C-148 148.34 -148 147.68 -148 147 C-146.33784732 145.66104368 -144.67036393 144.32869858 -143 143 C-142.29875 142.0925 -141.5975 141.185 -140.875 140.25 C-140.25625 139.5075 -139.6375 138.765 -139 138 C-138.01 138 -137.02 138 -136 138 C-136 137.01 -136 136.02 -136 135 C-135.34 135 -134.68 135 -134 135 C-133.67 134.01 -133.34 133.02 -133 132 C-132.34 132 -131.68 132 -131 132 C-130.67 131.01 -130.34 130.02 -130 129 C-129.34 129 -128.68 129 -128 129 C-127.67 128.01 -127.34 127.02 -127 126 C-126.34 126 -125.68 126 -125 126 C-125 125.34 -125 124.68 -125 124 C-123.33784732 122.66104368 -121.67036393 121.32869858 -120 120 C-119.34 119.175 -118.68 118.35 -118 117.5 C-115.90532454 114.88165568 -113.62909541 113.06064235 -111 111 C-110.67 110.34 -110.34 109.68 -110 109 C-109.34 109 -108.68 109 -108 109 C-107.67 108.01 -107.34 107.02 -107 106 C-106.34 106 -105.68 106 -105 106 C-104.67 105.01 -104.34 104.02 -104 103 C-103.34 103 -102.68 103 -102 103 C-101.67 102.01 -101.34 101.02 -101 100 C-100.34 100 -99.68 100 -99 100 C-99 99.34 -99 98.68 -99 98 C-97.33784732 96.66104368 -95.67036393 95.32869858 -94 94 C-93.34 93.175 -92.68 92.35 -92 91.5 C-89.90532454 88.88165568 -87.62909541 87.06064235 -85 85 C-84.67 84.34 -84.34 83.68 -84 83 C-83.01 83 -82.02 83 -81 83 C-81 82.01 -81 81.02 -81 80 C-80.34 80 -79.68 80 -79 80 C-78.71125 79.4225 -78.4225 78.845 -78.125 78.25 C-77.75375 77.5075 -77.3825 76.765 -77 76 C-76.67 75.278125 -76.34 74.55625 -76 73.8125 C-75 72 -75 72 -73 71 C-70.59896916 67.49849669 -69.25624207 64.03792094 -68 60 C-67.67 59.34 -67.34 58.68 -67 58 C-66.91440882 55.82175039 -66.89286588 53.64084745 -66.90234375 51.4609375 C-66.90717773 49.50800781 -66.90717773 49.50800781 -66.91210938 47.515625 C-66.92046534 46.13541601 -66.92893029 44.75520768 -66.9375 43.375 C-66.94251499 41.98698074 -66.9470779 40.59895978 -66.95117188 39.2109375 C-66.96299024 35.80724868 -66.97946566 32.40364561 -67 29 C-67.66 29 -68.32 29 -69 29 C-69.33 27.02 -69.66 25.04 -70 23 C-69.34 23 -68.68 23 -68 23 C-68 22.01 -68 21.02 -68 20 C-67.01 20 -66.02 20 -65 20 C-65 19.01 -65 18.02 -65 17 C-64.01 17 -63.02 17 -62 17 C-62 16.01 -62 15.02 -62 14 C-61.01 14 -60.02 14 -59 14 C-59 13.01 -59 12.02 -59 11 C-58.01 11 -57.02 11 -56 11 C-56 10.01 -56 9.02 -56 8 C-55.01 8 -54.02 8 -53 8 C-53 7.01 -53 6.02 -53 5 C-51.2421875 4.0234375 -49.484375 3.046875 -47.7265625 2.0703125 C-45.8387386 0.99102726 -45.8387386 0.99102726 -44 -1 C-42.34183216 -1.68753301 -40.67540664 -2.35561283 -39 -3 C-38.67 -3.33 -38.34 -3.66 -38 -4 C-24.90008471 -7.20480071 -11.93459207 -6.96184537 0 0 Z " fill="#FF6060" transform="translate(1119,545)"/>
<path d="M0 0 C0 0.99 0 1.98 0 3 C0.7425 2.938125 1.485 2.87625 2.25 2.8125 C5.47519908 3.03239994 6.69723426 3.78252188 9 6 C9 6.66 9 7.32 9 8 C10.65 8.33 12.3 8.66 14 9 C14 9.99 14 10.98 14 12 C14.99 12 15.98 12 17 12 C17 12.99 17 13.98 17 15 C17.99 15 18.98 15 20 15 C21.53515625 16.49609375 21.53515625 16.49609375 23.0625 18.4375 C25.1671333 21.15875193 25.1671333 21.15875193 28 23 C28 23.99 28 24.98 28 26 C28.99 26 29.98 26 31 26 C31 26.99 31 27.98 31 29 C31.99 29 32.98 29 34 29 C34 29.99 34 30.98 34 32 C34.99 32 35.98 32 37 32 C37 32.99 37 33.98 37 35 C37.99 35 38.98 35 40 35 C40 35.99 40 36.98 40 38 C40.99 38 41.98 38 43 38 C43 38.99 43 39.98 43 41 C43.99 41 44.98 41 46 41 C47.6875 42.3125 47.6875 42.3125 49 44 C49 44.99 49 45.98 49 47 C49.763125 47.268125 50.52625 47.53625 51.3125 47.8125 C53.90483979 48.95795247 55.30075537 49.76415181 57 52 C57 52.99 57 53.98 57 55 C57.99 55 58.98 55 60 55 C60 55.99 60 56.98 60 58 C60.99 58 61.98 58 63 58 C63 58.99 63 59.98 63 61 C63.99 61 64.98 61 66 61 C66 61.99 66 62.98 66 64 C66.99 64 67.98 64 69 64 C69 64.99 69 65.98 69 67 C69.99 67 70.98 67 72 67 C72 67.99 72 68.98 72 70 C72.99 70 73.98 70 75 70 C76.4296875 71.390625 76.4296875 71.390625 77.875 73.25 C79.80850052 75.64754064 81.41427277 77.32421348 83.875 79.25 C84.57625 79.8275 85.2775 80.405 86 81 C86 81.99 86 82.98 86 84 C86.99 84 87.98 84 89 84 C89 84.99 89 85.98 89 87 C89.99 87 90.98 87 92 87 C92 87.99 92 88.98 92 90 C92.99 90 93.98 90 95 90 C95 90.99 95 91.98 95 93 C95.99 93 96.98 93 98 93 C98 93.99 98 94.98 98 96 C98.99 96 99.98 96 101 96 C101 96.99 101 97.98 101 99 C101.99 99 102.98 99 104 99 C105.68359375 100.64453125 105.68359375 100.64453125 107.4375 102.8125 C109.28066886 105.07625772 110.83362404 106.88216255 113.22265625 108.57421875 C113.80917969 109.04472656 114.39570312 109.51523437 115 110 C115 110.99 115 111.98 115 113 C115.99 113 116.98 113 118 113 C118 113.99 118 114.98 118 116 C118.99 116 119.98 116 121 116 C121 116.66 121 117.32 121 118 C121.99 118.33 122.98 118.66 124 119 C123.38125 119.0825 122.7625 119.165 122.125 119.25 C119.8653367 119.77905978 119.8653367 119.77905978 119.0625 121.75 C118.711875 122.4925 118.36125 123.235 118 124 C115.5 126.75 115.5 126.75 113 129 C112.34 129 111.68 129 111 129 C110.7525 129.61875 110.505 130.2375 110.25 130.875 C108.79371361 133.35068687 107.62187494 133.95125002 105 135 C105 135.66 105 136.32 105 137 C104.34 137.33 103.68 137.66 103 138 C102.67 138.99 102.34 139.98 102 141 C101.01 141 100.02 141 99 141 C99 141.66 99 142.32 99 143 C98.34 143 97.68 143 97 143 C97 143.99 97 144.98 97 146 C96.01 146 95.02 146 94 146 C93.67 146.99 93.34 147.98 93 149 C92.34 149 91.68 149 91 149 C90.773125 149.556875 90.54625 150.11375 90.3125 150.6875 C88.62449964 153.66159588 86.53323483 155.72008865 84 158 C83.34 158 82.68 158 82 158 C81.6596875 158.9590625 81.6596875 158.9590625 81.3125 159.9375 C80 162 80 162 77.375 162.75 C76.59125 162.8325 75.8075 162.915 75 163 C75 162.34 75 161.68 75 161 C74.01 161 73.02 161 72 161 C72 160.01 72 159.02 72 158 C71.38125 157.7525 70.7625 157.505 70.125 157.25 C67.64931313 155.79371361 67.04874998 154.62187494 66 152 C65.01 152 64.02 152 63 152 C61.6072711 150.38263741 60.28062485 148.7074998 59 147 C58.34 146.34 57.68 145.68 57 145 C55 143 55 143 52.875 140.3125 C51.20909046 137.93242212 51.20909046 137.93242212 49 137 C49 136.34 49 135.68 49 135 C48.01 135 47.02 135 46 135 C43 131.66666667 43 131.66666667 43 129 C42.443125 128.7525 41.88625 128.505 41.3125 128.25 C36.50527495 125.65149997 33.31575329 122.27839134 30 118 C29.34 117.34 28.68 116.68 28 116 C26 114 26 114 23.875 111.3125 C22.20909046 108.93242212 22.20909046 108.93242212 20 108 C20 107.34 20 106.68 20 106 C19.01 106 18.02 106 17 106 C15.39453125 104.5390625 15.39453125 104.5390625 13.8125 102.625 C13.28269531 101.99851562 12.75289062 101.37203125 12.20703125 100.7265625 C11 99 11 99 11 97 C10.01 97 9.02 97 8 97 C6.63360658 95.3603279 5.3050581 93.68889872 4 92 C3.154375 91.34 2.30875 90.68 1.4375 90 C-1.14521285 87.880851 -2.36666342 85.87778349 -4 83 C-4.99 82.505 -4.99 82.505 -6 82 C-6 81.34 -6 80.68 -6 80 C-6.99 80 -7.98 80 -9 80 C-9 79.01 -9 78.02 -9 77 C-9.99 77 -10.98 77 -12 77 C-12 76.01 -12 75.02 -12 74 C-12.99 74 -13.98 74 -15 74 C-15 73.01 -15 72.02 -15 71 C-15.99 71 -16.98 71 -18 71 C-18 70.01 -18 69.02 -18 68 C-18.99 68 -19.98 68 -21 68 C-22.37868281 66.37064759 -23.71274093 64.70250393 -25 63 C-25.99 62.505 -25.99 62.505 -27 62 C-27 61.01 -27 60.02 -27 59 C-27.66 59 -28.32 59 -29 59 C-29 58.34 -29 57.68 -29 57 C-29.99 57 -30.98 57 -32 57 C-32.33 56.01 -32.66 55.02 -33 54 C-33.66 53.67 -34.32 53.34 -35 53 C-35 52.34 -35 51.68 -35 51 C-35.99 51 -36.98 51 -38 51 C-38 50.01 -38 49.02 -38 48 C-38.99 48 -39.98 48 -41 48 C-41 47.01 -41 46.02 -41 45 C-41.556875 44.7525 -42.11375 44.505 -42.6875 44.25 C-46.51964054 42.17857268 -50.21386696 39.37268737 -53 36 C-53 35.01 -53 34.02 -53 33 C-53.99 33 -54.98 33 -56 33 C-58.1875 30.5 -58.1875 30.5 -60 28 C-58.68 25.36 -57.36 22.72 -56 20 C-55.34 20 -54.68 20 -54 20 C-53.8453125 19.13375 -53.8453125 19.13375 -53.6875 18.25 C-52.89103535 15.64338842 -51.80934723 14.0264689 -50 12 C-49.34 12 -48.68 12 -48 12 C-48 11.01 -48 10.02 -48 9 C-46.35 8.67 -44.7 8.34 -43 8 C-43 7.34 -43 6.68 -43 6 C-40.24165575 3.54813844 -37.42548265 2.29612857 -34 1 C-33.67 0.67 -33.34 0.34 -33 0 C-21.47675738 -2.774489 -11.59494743 -1.82392431 0 0 Z " fill="#FF6060" transform="translate(650,634)"/>
<path d="M0 0 C0.99 0 1.98 0 3 0 C3 3 3 3 1.6875 4.6875 C0 6 0 6 -3 6 C-3 6.66 -3 7.32 -3 8 C-3.66 8 -4.32 8 -5 8 C-5 8.99 -5 9.98 -5 11 C-5.99 11 -6.98 11 -8 11 C-8.2475 11.556875 -8.495 12.11375 -8.75 12.6875 C-11.36225813 17.52017755 -14.76248568 20.60998855 -19 24 C-20.36244796 25.64295195 -21.69864875 27.30824337 -23 29 C-24.5625 30.8125 -24.5625 30.8125 -26 32 C-26.99 32 -27.98 32 -29 32 C-29 32.99 -29 33.98 -29 35 C-29.99 35 -30.98 35 -32 35 C-32 35.66 -32 36.32 -32 37 C-32.66 37 -33.32 37 -34 37 C-34.33 37.99 -34.66 38.98 -35 40 C-35.66 40 -36.32 40 -37 40 C-37 40.99 -37 41.98 -37 43 C-38.6396721 44.36639342 -40.31110128 45.6949419 -42 47 C-43.36244796 48.64295195 -44.69864875 50.30824337 -46 52 C-47.5625 53.8125 -47.5625 53.8125 -49 55 C-49.99 55 -50.98 55 -52 55 C-52 54.01 -52 53.02 -52 52 C-51.01 52 -50.02 52 -49 52 C-49 51.01 -49 50.02 -49 49 C-48.01 49 -47.02 49 -46 49 C-46 48.01 -46 47.02 -46 46 C-45.01 46 -44.02 46 -43 46 C-43 45.01 -43 44.02 -43 43 C-42.01 43 -41.02 43 -40 43 C-40 42.01 -40 41.02 -40 40 C-38.37064759 38.62131719 -36.70250393 37.28725907 -35 36 C-34.67 35.34 -34.34 34.68 -34 34 C-33.34 34 -32.68 34 -32 34 C-32 33.34 -32 32.68 -32 32 C-30.6875 30.375 -30.6875 30.375 -29 29 C-28.01 29 -27.02 29 -26 29 C-26 28.01 -26 27.02 -26 26 C-25.01 26 -24.02 26 -23 26 C-23 25.01 -23 24.02 -23 23 C-22.01 23 -21.02 23 -20 23 C-20 22.01 -20 21.02 -20 20 C-19.01 20 -18.02 20 -17 20 C-17 19.01 -17 18.02 -17 17 C-16.01 17 -15.02 17 -14 17 C-14 16.01 -14 15.02 -14 14 C-13.01 14 -12.02 14 -11 14 C-11 13.01 -11 12.02 -11 11 C-9.609375 9.5703125 -9.609375 9.5703125 -7.75 8.125 C-5.35245936 6.19149948 -3.67578652 4.58572723 -1.75 2.125 C-1.1725 1.42375 -0.595 0.7225 0 0 Z " fill="#FF4C4C" transform="translate(959,780)"/>
<path d="M0 0 C0.99 0 1.98 0 3 0 C3 0.99 3 1.98 3 3 C1.37946188 4.38903267 -0.29705213 5.71332828 -2 7 C-2.886875 7.9075 -3.77375 8.815 -4.6875 9.75 C-7 12 -7 12 -9 12 C-9 12.66 -9 13.32 -9 14 C-10.375 15.625 -10.375 15.625 -12 17 C-12.66 17 -13.32 17 -14 17 C-14.33 17.99 -14.66 18.98 -15 20 C-15.66 20 -16.32 20 -17 20 C-17 20.99 -17 21.98 -17 23 C-18.6396721 24.36639342 -20.31110128 25.6949419 -22 27 C-23.36244796 28.64295195 -24.69864875 30.30824337 -26 32 C-27.5625 33.8125 -27.5625 33.8125 -29 35 C-29.99 35 -30.98 35 -32 35 C-32 34.01 -32 33.02 -32 32 C-31.01 32 -30.02 32 -29 32 C-29 31.01 -29 30.02 -29 29 C-28.01 29 -27.02 29 -26 29 C-26 28.01 -26 27.02 -26 26 C-25.01 26 -24.02 26 -23 26 C-23 25.01 -23 24.02 -23 23 C-22.01 23 -21.02 23 -20 23 C-20 22.01 -20 21.02 -20 20 C-18.37064759 18.62131719 -16.70250393 17.28725907 -15 16 C-14.67 15.34 -14.34 14.68 -14 14 C-13.34 14 -12.68 14 -12 14 C-12 13.34 -12 12.68 -12 12 C-10.6875 10.375 -10.6875 10.375 -9 9 C-8.01 9 -7.02 9 -6 9 C-6 8.01 -6 7.02 -6 6 C-5.01 6 -4.02 6 -3 6 C-3 5.01 -3 4.02 -3 3 C-2.01 3 -1.02 3 0 3 C0 2.01 0 1.02 0 0 Z " fill="#FF4D4D" transform="translate(1052,687)"/>
<path d="M0 0 C0.99 0 1.98 0 3 0 C3 0.99 3 1.98 3 3 C2.01 3 1.02 3 0 3 C-0.33 3.99 -0.66 4.98 -1 6 C-1.66 6 -2.32 6 -3 6 C-3 6.66 -3 7.32 -3 8 C-3.66 8 -4.32 8 -5 8 C-5 8.99 -5 9.98 -5 11 C-5.99 11 -6.98 11 -8 11 C-8.2475 11.556875 -8.495 12.11375 -8.75 12.6875 C-11.36225813 17.52017755 -14.76248568 20.60998855 -19 24 C-19.70125 24.9075 -20.4025 25.815 -21.125 26.75 C-22.053125 27.86375 -22.053125 27.86375 -23 29 C-23.99 29 -24.98 29 -26 29 C-26 28.01 -26 27.02 -26 26 C-25.01 26 -24.02 26 -23 26 C-23 25.01 -23 24.02 -23 23 C-22.01 23 -21.02 23 -20 23 C-20 22.01 -20 21.02 -20 20 C-19.01 20 -18.02 20 -17 20 C-17 19.01 -17 18.02 -17 17 C-16.01 17 -15.02 17 -14 17 C-14 16.01 -14 15.02 -14 14 C-13.01 14 -12.02 14 -11 14 C-11 13.01 -11 12.02 -11 11 C-9.625 9.3125 -9.625 9.3125 -8 8 C-7.34 8 -6.68 8 -6 8 C-6 7.34 -6 6.68 -6 6 C-4.34997172 4.64613064 -2.6825613 3.31321858 -1 2 C-0.67 1.34 -0.34 0.68 0 0 Z " fill="#FF4D4D" transform="translate(988,751)"/>
<path d="M0 0 C0.99 0 1.98 0 3 0 C3 3 3 3 1.6875 4.6875 C0 6 0 6 -3 6 C-3.268125 6.5775 -3.53625 7.155 -3.8125 7.75 C-5.0388622 10.07363365 -6.24843434 12.03824646 -8 14 C-8.99 14 -9.98 14 -11 14 C-11.2475 14.556875 -11.495 15.11375 -11.75 15.6875 C-13.82142732 19.51964054 -16.62731263 23.21386696 -20 26 C-20.99 26 -21.98 26 -23 26 C-23 25.01 -23 24.02 -23 23 C-22.01 23 -21.02 23 -20 23 C-20 22.01 -20 21.02 -20 20 C-19.01 20 -18.02 20 -17 20 C-17 19.01 -17 18.02 -17 17 C-16.01 17 -15.02 17 -14 17 C-14 16.01 -14 15.02 -14 14 C-12.625 12.3125 -12.625 12.3125 -11 11 C-10.34 11 -9.68 11 -9 11 C-8.67 10.01 -8.34 9.02 -8 8 C-7.34 8 -6.68 8 -6 8 C-6 7.34 -6 6.68 -6 6 C-4.6875 4.375 -4.6875 4.375 -3 3 C-2.01 3 -1.02 3 0 3 C0 2.01 0 1.02 0 0 Z " fill="#FF4C4C" transform="translate(1104,635)"/>
<path d="M0 0 C0.99 0 1.98 0 3 0 C3 0.99 3 1.98 3 3 C2.01 3 1.02 3 0 3 C0 3.99 0 4.98 0 6 C-0.99 6 -1.98 6 -3 6 C-3 6.66 -3 7.32 -3 8 C-3.66 8 -4.32 8 -5 8 C-5 8.99 -5 9.98 -5 11 C-5.99 11 -6.98 11 -8 11 C-8.2475 11.556875 -8.495 12.11375 -8.75 12.6875 C-10.23870529 15.44160479 -11.88409972 17.69174514 -14 20 C-14.99 20 -15.98 20 -17 20 C-17 19.01 -17 18.02 -17 17 C-16.01 17 -15.02 17 -14 17 C-14 16.01 -14 15.02 -14 14 C-13.01 14 -12.02 14 -11 14 C-11 13.01 -11 12.02 -11 11 C-9.609375 9.5703125 -9.609375 9.5703125 -7.75 8.125 C-5.35245936 6.19149948 -3.67578652 4.58572723 -1.75 2.125 C-1.1725 1.42375 -0.595 0.7225 0 0 Z " fill="#FF4D4D" transform="translate(1072,667)"/>
<path d="M0 0 C0 0.33 0 0.66 0 1 C-8.58 1 -17.16 1 -26 1 C-26 1.66 -26 2.32 -26 3 C-27.32 2.67 -28.64 2.34 -30 2 C-23.18903479 -4.81096521 -8.39838865 -2.44316761 0 0 Z " fill="#FF4646" transform="translate(1109,541)"/>
<path d="M0 0 C0.99 0 1.98 0 3 0 C3 0.99 3 1.98 3 3 C1.3603279 4.36639342 -0.31110128 5.6949419 -2 7 C-3.36244796 8.64295195 -4.69864875 10.30824337 -6 12 C-7.5625 13.8125 -7.5625 13.8125 -9 15 C-9.99 15 -10.98 15 -12 15 C-12 14.01 -12 13.02 -12 12 C-11.01 12 -10.02 12 -9 12 C-9 11.01 -9 10.02 -9 9 C-8.01 9 -7.02 9 -6 9 C-6 8.01 -6 7.02 -6 6 C-5.01 6 -4.02 6 -3 6 C-3 5.01 -3 4.02 -3 3 C-2.01 3 -1.02 3 0 3 C0 2.01 0 1.02 0 0 Z " fill="#FF4C4C" transform="translate(1003,736)"/>
<path d="M0 0 C0.99 0 1.98 0 3 0 C3 0.99 3 1.98 3 3 C-0.33333333 6 -0.33333333 6 -3 6 C-3 6.66 -3 7.32 -3 8 C-4.375 9.625 -4.375 9.625 -6 11 C-6.66 11 -7.32 11 -8 11 C-8.33 11.99 -8.66 12.98 -9 14 C-9.66 14 -10.32 14 -11 14 C-11 11 -11 11 -9.625 9.3125 C-8 8 -8 8 -6 8 C-6 7.34 -6 6.68 -6 6 C-4.6875 4.375 -4.6875 4.375 -3 3 C-2.01 3 -1.02 3 0 3 C0 2.01 0 1.02 0 0 Z " fill="#FF5151" transform="translate(904,835)"/>
<path d="M0 0 C0.99 0 1.98 0 3 0 C3 0.99 3 1.98 3 3 C-0.33333333 6 -0.33333333 6 -3 6 C-3 6.66 -3 7.32 -3 8 C-4.375 9.625 -4.375 9.625 -6 11 C-6.66 11 -7.32 11 -8 11 C-8.33 11.99 -8.66 12.98 -9 14 C-9.66 14 -10.32 14 -11 14 C-11 11 -11 11 -9.625 9.3125 C-8 8 -8 8 -6 8 C-6 7.34 -6 6.68 -6 6 C-4.6875 4.375 -4.6875 4.375 -3 3 C-2.01 3 -1.02 3 0 3 C0 2.01 0 1.02 0 0 Z " fill="#FF5151" transform="translate(1017,722)"/>
<path d="M0 0 C0.99 0 1.98 0 3 0 C3 0.99 3 1.98 3 3 C1.3603279 4.36639342 -0.31110128 5.6949419 -2 7 C-3.051875 8.36125 -3.051875 8.36125 -4.125 9.75 C-5.053125 10.86375 -5.053125 10.86375 -6 12 C-6.99 12 -7.98 12 -9 12 C-9 11.01 -9 10.02 -9 9 C-8.01 9 -7.02 9 -6 9 C-6 8.01 -6 7.02 -6 6 C-5.01 6 -4.02 6 -3 6 C-3 5.01 -3 4.02 -3 3 C-2.01 3 -1.02 3 0 3 C0 2.01 0 1.02 0 0 Z " fill="#FF4C4C" transform="translate(890,849)"/>
<path d="M0 0 C2.56243214 5.12486428 3.10720499 8.31813568 3 14 C2.34 14 1.68 14 1 14 C1 16.31 1 18.62 1 21 C0.67 21 0.34 21 0 21 C0 14.07 0 7.14 0 0 Z " fill="#FF3636" transform="translate(1139,573)"/>
<path d="M0 0 C-1.44077046 3.36179774 -3.24750021 5.59156268 -6 8 C-6.66 8 -7.32 8 -8 8 C-8.33 8.99 -8.66 9.98 -9 11 C-9.66 11 -10.32 11 -11 11 C-11 8 -11 8 -9.625 6.3125 C-8 5 -8 5 -6 5 C-6 4.34 -6 3.68 -6 3 C-3.89994105 0.39992701 -3.48266577 0 0 0 Z " fill="#FF4F4F" transform="translate(1130,612)"/>
<path d="M0 0 C-0.33 0.99 -0.66 1.98 -1 3 C-4.3 3 -7.6 3 -11 3 C-11 3.66 -11 4.32 -11 5 C-12.32 4.67 -13.64 4.34 -15 4 C-12.49757535 1.49757535 -10.95406099 1.44764695 -7.5 0.875 C-6.03046875 0.62363281 -6.03046875 0.62363281 -4.53125 0.3671875 C-2 0 -2 0 0 0 Z " fill="#FF3C3C" transform="translate(1094,539)"/>
<path d="M0 0 C0.48210938 0.42152344 0.96421875 0.84304688 1.4609375 1.27734375 C2.09257813 1.82519531 2.72421875 2.37304688 3.375 2.9375 C4.00148438 3.48277344 4.62796875 4.02804687 5.2734375 4.58984375 C6.95632334 6.06958624 6.95632334 6.06958624 9 7 C8.67 7.66 8.34 8.32 8 9 C4.68765616 7.83620352 2.1101781 6.88761214 0 4 C0 2.68 0 1.36 0 0 Z " fill="#FF4A4A" transform="translate(756,737)"/>
<path d="M0 0 C0.99 0 1.98 0 3 0 C4.38671875 1.53125 4.38671875 1.53125 5.6875 3.5 C6.12449219 4.1496875 6.56148437 4.799375 7.01171875 5.46875 C7.33785156 5.9740625 7.66398438 6.479375 8 7 C5.0280615 5.87548273 2.66559313 4.77706209 0 3 C0 2.01 0 1.02 0 0 Z " fill="#FF4949" transform="translate(722,704)"/>
<path d="M0 0 C0.99 0 1.98 0 3 0 C4.38671875 1.53125 4.38671875 1.53125 5.6875 3.5 C6.12449219 4.1496875 6.56148437 4.799375 7.01171875 5.46875 C7.33785156 5.9740625 7.66398438 6.479375 8 7 C5.0280615 5.87548273 2.66559313 4.77706209 0 3 C0 2.01 0 1.02 0 0 Z " fill="#FF4848" transform="translate(667,649)"/>
<path d="M0 0 C3.02990095 1.71967351 5.76327296 3.29238306 8 6 C8 6.66 8 7.32 8 8 C5.125 7.375 5.125 7.375 2 6 C0.625 2.875 0.625 2.875 0 0 Z " fill="#FF4141" transform="translate(1122,547)"/>
<path d="M0 0 C0.99 0 1.98 0 3 0 C3 3 3 3 1.6875 4.6875 C0 6 0 6 -3 6 C-3 5.01 -3 4.02 -3 3 C-2.01 3 -1.02 3 0 3 C0 2.01 0 1.02 0 0 Z " fill="#FF4C4C" transform="translate(1116,623)"/>
<path d="M0 0 C0.53625 0.268125 1.0725 0.53625 1.625 0.8125 C0.965 0.8125 0.305 0.8125 -0.375 0.8125 C-0.375 1.4725 -0.375 2.1325 -0.375 2.8125 C-2.33966413 3.88025224 -4.34355359 4.87803465 -6.375 5.8125 C-7.035 5.4825 -7.695 5.1525 -8.375 4.8125 C-2.95961538 -0.23365385 -2.95961538 -0.23365385 0 0 Z " fill="#FF4949" transform="translate(1077.375,544.1875)"/>
<path d="M0 0 C3.14737182 0.69941596 6.02588876 1.76078698 9 3 C9 3.66 9 4.32 9 5 C8.01 5 7.02 5 6 5 C6 4.34 6 3.68 6 3 C3.03 2.505 3.03 2.505 0 2 C0 1.34 0 0.68 0 0 Z " fill="#FF5151" transform="translate(1110,542)"/>
</svg>
