<?xml version="1.0" encoding="UTF-8"?>
<!DOCTYPE svg PUBLIC "-//W3C//DTD SVG 1.1//EN" "http://www.w3.org/Graphics/SVG/1.1/DTD/svg11.dtd">
<svg xmlns="http://www.w3.org/2000/svg" version="1.1" width="1920px" height="1080px" style="shape-rendering:geometricPrecision; text-rendering:geometricPrecision; image-rendering:optimizeQuality; fill-rule:evenodd; clip-rule:evenodd" xmlns:xlink="http://www.w3.org/1999/xlink">
<g><path style="opacity:0.573" fill="#ffdddc" d="M 186.5,395.5 C 179.633,393.775 172.633,393.108 165.5,393.5C 170.606,391.155 175.94,390.988 181.5,393C 183.491,393.374 185.158,394.207 186.5,395.5 Z"/></g>
<g><path style="opacity:0.999" fill="#ff0601" d="M 165.5,393.5 C 172.633,393.108 179.633,393.775 186.5,395.5C 186.973,396.906 187.973,397.573 189.5,397.5C 189.973,398.906 190.973,399.573 192.5,399.5C 193.5,399.833 194.167,400.5 194.5,401.5C 195.167,402.833 196.167,403.833 197.5,404.5C 198.833,405.167 199.833,406.167 200.5,407.5C 200.5,409.5 201.5,410.5 203.5,410.5C 204.167,410.5 204.5,410.833 204.5,411.5C 207.497,414.496 211.164,416.163 215.5,416.5C 219.5,416.5 223.5,416.5 227.5,416.5C 236.585,414.928 245.585,415.262 254.5,417.5C 254.973,418.906 255.973,419.573 257.5,419.5C 259.027,419.427 260.027,420.094 260.5,421.5C 261.5,423.167 262.833,424.5 264.5,425.5C 264.427,427.027 265.094,428.027 266.5,428.5C 266.427,430.027 267.094,431.027 268.5,431.5C 269.931,432.78 270.598,434.447 270.5,436.5C 271.223,442.506 272.056,448.506 273,454.5C 273.278,455.416 273.778,456.082 274.5,456.5C 274.461,459.089 275.461,461.089 277.5,462.5C 278.833,465.833 281.167,468.167 284.5,469.5C 286.579,471.873 289.246,473.206 292.5,473.5C 294.819,473.992 296.819,474.992 298.5,476.5C 298.973,477.906 299.973,478.573 301.5,478.5C 302.167,478.5 302.5,478.833 302.5,479.5C 303.5,481.167 304.833,482.5 306.5,483.5C 306.738,485.404 307.738,486.738 309.5,487.5C 309.66,489.153 310.326,490.486 311.5,491.5C 315.428,499.489 315.428,507.489 311.5,515.5C 309.992,517.181 308.992,519.181 308.5,521.5C 308.672,522.492 308.338,523.158 307.5,523.5C 304.835,525.835 303.502,528.835 303.5,532.5C 302.288,539.782 303.288,546.782 306.5,553.5C 306.427,555.027 307.094,556.027 308.5,556.5C 315.379,567.178 316.046,578.178 310.5,589.5C 309.094,589.973 308.427,590.973 308.5,592.5C 308.5,593.167 308.167,593.5 307.5,593.5C 306.094,593.973 305.427,594.973 305.5,596.5C 305.5,597.167 305.167,597.5 304.5,597.5C 302.973,597.427 301.973,598.094 301.5,599.5C 298.839,602.502 295.505,604.502 291.5,605.5C 288.911,605.461 286.911,606.461 285.5,608.5C 283.192,610.471 280.858,612.471 278.5,614.5C 277.094,614.973 276.427,615.973 276.5,617.5C 275.736,620.018 274.736,622.351 273.5,624.5C 272.028,628.919 271.362,633.586 271.5,638.5C 270.129,640.936 269.129,643.603 268.5,646.5C 268.25,648.674 267.25,650.341 265.5,651.5C 264.094,651.973 263.427,652.973 263.5,654.5C 263.5,655.167 263.167,655.5 262.5,655.5C 260.596,655.738 259.262,656.738 258.5,658.5C 256.035,660.837 253.035,662.337 249.5,663C 244.511,663.499 239.511,663.666 234.5,663.5C 225.648,659.198 216.981,659.532 208.5,664.5C 206.973,664.427 205.973,665.094 205.5,666.5C 202.167,667.833 199.833,670.167 198.5,673.5C 197.167,675.5 195.5,677.167 193.5,678.5C 191.973,678.427 190.973,679.094 190.5,680.5C 188.326,680.75 186.659,681.75 185.5,683.5C 185.167,683.5 184.833,683.5 184.5,683.5C 181.933,683.721 179.599,684.388 177.5,685.5C 171.719,686.894 166.053,686.228 160.5,683.5C 159.341,681.75 157.674,680.75 155.5,680.5C 154.415,678.413 152.749,677.08 150.5,676.5C 148.833,675.5 147.5,674.167 146.5,672.5C 145.5,669.5 143.5,667.5 140.5,666.5C 140.027,665.094 139.027,664.427 137.5,664.5C 130.412,660.537 123.079,659.871 115.5,662.5C 110.36,663.488 105.026,663.821 99.5,663.5C 97.7857,662.262 95.7857,661.595 93.5,661.5C 91.8185,659.992 89.8185,658.992 87.5,658.5C 86.4154,656.413 84.7488,655.08 82.5,654.5C 82.2624,652.596 81.2624,651.262 79.5,650.5C 79.573,648.973 78.9063,647.973 77.5,647.5C 77.0198,644.557 76.0198,641.89 74.5,639.5C 74.7709,634.566 74.1042,629.9 72.5,625.5C 72.4982,621.835 71.1648,618.835 68.5,616.5C 66.8333,612.833 64.1667,610.167 60.5,608.5C 59.089,606.461 57.089,605.461 54.5,605.5C 52.1815,605.008 50.1815,604.008 48.5,602.5C 48.0269,601.094 47.0269,600.427 45.5,600.5C 44.7377,598.738 43.4044,597.738 41.5,597.5C 40.5,597.167 39.8333,596.5 39.5,595.5C 39.2624,593.596 38.2624,592.262 36.5,591.5C 36.0075,589.181 35.0075,587.181 33.5,585.5C 32.2214,578.505 32.2214,571.505 33.5,564.5C 35.341,562.151 36.6743,559.485 37.5,556.5C 39.873,554.421 41.2064,551.754 41.5,548.5C 41.2322,546.901 41.5655,545.568 42.5,544.5C 43.6453,540.689 43.8119,536.689 43,532.5C 42.6264,530.509 41.793,528.842 40.5,527.5C 39.9213,524.669 38.588,522.336 36.5,520.5C 35.6618,520.158 35.3284,519.492 35.5,518.5C 31.027,507.178 31.6937,496.178 37.5,485.5C 39.5,482.833 41.8333,480.5 44.5,478.5C 46.0269,478.573 47.0269,477.906 47.5,476.5C 49.1815,474.992 51.1815,473.992 53.5,473.5C 56.7541,473.206 59.4208,471.873 61.5,469.5C 64.5,468.5 66.5,466.5 67.5,463.5C 68.9063,463.027 69.573,462.027 69.5,460.5C 71.6545,458.383 72.6545,455.716 72.5,452.5C 72.7704,447.972 73.4371,443.639 74.5,439.5C 75.7384,437.786 76.405,435.786 76.5,433.5C 76.6596,431.847 77.3263,430.514 78.5,429.5C 79.9063,429.027 80.573,428.027 80.5,426.5C 82.5,425.167 84.1667,423.5 85.5,421.5C 88.669,420.083 91.669,418.417 94.5,416.5C 104.374,415.193 114.207,415.526 124,417.5C 127.477,417.672 130.644,417.006 133.5,415.5C 134.93,414.463 136.597,413.796 138.5,413.5C 140.404,413.262 141.738,412.262 142.5,410.5C 146.758,406.909 150.758,402.909 154.5,398.5C 157.485,397.674 160.151,396.341 162.5,394.5C 163.209,393.596 164.209,393.263 165.5,393.5 Z"/></g>
<g><path style="opacity:0.973" fill="#fe0000" d="M 1643.5,393.5 C 1658.17,393.5 1672.83,393.5 1687.5,393.5C 1687.5,487.5 1687.5,581.5 1687.5,675.5C 1672.83,675.5 1658.17,675.5 1643.5,675.5C 1643.5,581.5 1643.5,487.5 1643.5,393.5 Z"/></g>
<g><path style="opacity:0.973" fill="#fe0000" d="M 1727.5,393.5 C 1742.17,393.5 1756.83,393.5 1771.5,393.5C 1771.33,444.168 1771.5,494.834 1772,545.5C 1793.62,521.381 1815.78,497.714 1838.5,474.5C 1856.8,473.18 1875.13,473.18 1893.5,474.5C 1867.5,502.833 1841.5,531.167 1815.5,559.5C 1843.47,597.308 1871.64,634.975 1900,672.5C 1900.48,673.448 1900.65,674.448 1900.5,675.5C 1883.15,675.833 1865.82,675.5 1848.5,674.5C 1827.53,646.358 1806.36,618.358 1785,590.5C 1780.3,594.866 1775.97,599.533 1772,604.5C 1771.5,628.164 1771.33,651.831 1771.5,675.5C 1756.83,675.5 1742.17,675.5 1727.5,675.5C 1727.5,581.5 1727.5,487.5 1727.5,393.5 Z"/></g>
<g><path style="opacity:0.1" fill="#fff0ef" d="M 186.5,395.5 C 188.027,395.427 189.027,396.094 189.5,397.5C 187.973,397.573 186.973,396.906 186.5,395.5 Z"/></g>
<g><path style="opacity:0.412" fill="#ffe8e7" d="M 162.5,394.5 C 160.151,396.341 157.485,397.674 154.5,398.5C 156.579,396.127 159.246,394.794 162.5,394.5 Z"/></g>
<g><path style="opacity:0.031" fill="#ffe1df" d="M 189.5,397.5 C 191.027,397.427 192.027,398.094 192.5,399.5C 190.973,399.573 189.973,398.906 189.5,397.5 Z"/></g>
<g><path style="opacity:0.004" fill="#ffebeb" d="M 194.5,401.5 C 196.5,401.5 197.5,402.5 197.5,404.5C 196.167,403.833 195.167,402.833 194.5,401.5 Z"/></g>
<g><path style="opacity:0.384" fill="#ffdfdc" d="M 154.5,398.5 C 150.758,402.909 146.758,406.909 142.5,410.5C 145.521,405.479 149.521,401.479 154.5,398.5 Z"/></g>
<g><path style="opacity:0.69" fill="#ffb6b0" d="M 200.5,407.5 C 201.833,408.167 202.833,409.167 203.5,410.5C 201.5,410.5 200.5,409.5 200.5,407.5 Z"/></g>
<g><path style="opacity:0.979" fill="#fe0000" d="M 370.5,408.5 C 406.835,408.333 443.168,408.5 479.5,409C 529.257,414.251 554.924,441.751 556.5,491.5C 554.798,524.167 539.464,547.833 510.5,562.5C 528.746,595.994 547.246,629.328 566,662.5C 567.367,666.7 567.867,671.033 567.5,675.5C 552.152,675.833 536.819,675.499 521.5,674.5C 503.039,640.413 484.706,606.246 466.5,572C 449.503,571.5 432.503,571.333 415.5,571.5C 415.5,606.167 415.5,640.833 415.5,675.5C 400.5,675.5 385.5,675.5 370.5,675.5C 370.5,586.5 370.5,497.5 370.5,408.5 Z M 415.5,447.5 C 434.503,447.333 453.503,447.5 472.5,448C 503.513,453.818 515.68,472.318 509,503.5C 502.786,520.357 490.62,529.857 472.5,532C 453.503,532.5 434.503,532.667 415.5,532.5C 415.5,504.167 415.5,475.833 415.5,447.5 Z"/></g>
<g><path style="opacity:0.983" fill="#fe0000" d="M 590.5,408.5 C 647.833,408.5 705.167,408.5 762.5,408.5C 762.5,421.5 762.5,434.5 762.5,447.5C 720.167,447.5 677.833,447.5 635.5,447.5C 635.5,471.167 635.5,494.833 635.5,518.5C 672.5,518.5 709.5,518.5 746.5,518.5C 746.5,531.167 746.5,543.833 746.5,556.5C 709.5,556.5 672.5,556.5 635.5,556.5C 635.5,583.167 635.5,609.833 635.5,636.5C 678.5,636.5 721.5,636.5 764.5,636.5C 764.5,649.5 764.5,662.5 764.5,675.5C 706.5,675.5 648.5,675.5 590.5,675.5C 590.5,586.5 590.5,497.5 590.5,408.5 Z"/></g>
<g><path style="opacity:0.975" fill="#fe0000" d="M 871.5,408.5 C 884.184,408.168 896.851,408.501 909.5,409.5C 943.5,497.833 977.5,586.167 1011.5,674.5C 995.844,675.666 980.177,675.833 964.5,675C 956.002,653.005 948.002,630.839 940.5,608.5C 907.167,608.5 873.833,608.5 840.5,608.5C 832.998,630.839 824.998,653.005 816.5,675C 800.833,675.667 785.167,675.667 769.5,675C 803.602,586.194 837.602,497.361 871.5,408.5 Z M 889.5,473.5 C 890.497,473.47 891.164,473.97 891.5,475C 902.735,506.205 914.068,537.372 925.5,568.5C 902.167,569.833 878.833,569.833 855.5,568.5C 867.238,536.95 878.572,505.283 889.5,473.5 Z"/></g>
<g><path style="opacity:0.979" fill="#fe0000" d="M 1030.5,408.5 C 1064.2,408.05 1097.86,408.55 1131.5,410C 1180.21,420.041 1210.71,449.208 1223,497.5C 1226.85,523.069 1227.51,548.735 1225,574.5C 1215.79,631.71 1182.62,664.877 1125.5,674C 1093.86,675.412 1062.19,675.912 1030.5,675.5C 1030.5,586.5 1030.5,497.5 1030.5,408.5 Z M 1075.5,447.5 C 1092.54,447.107 1109.54,447.607 1126.5,449C 1152.69,454.854 1169.52,470.687 1177,496.5C 1180.88,510.907 1182.38,525.574 1181.5,540.5C 1183.44,563.557 1178.94,585.223 1168,605.5C 1153.94,624.95 1134.77,635.117 1110.5,636C 1098.84,636.5 1087.17,636.667 1075.5,636.5C 1075.5,573.5 1075.5,510.5 1075.5,447.5 Z"/></g>
<g><path style="opacity:0.977" fill="#fe0000" d="M 1237.5,408.5 C 1307.5,408.5 1377.5,408.5 1447.5,408.5C 1447.82,421.413 1447.49,434.246 1446.5,447C 1419.17,447.5 1391.84,447.667 1364.5,447.5C 1364.5,523.5 1364.5,599.5 1364.5,675.5C 1349.5,675.5 1334.5,675.5 1319.5,675.5C 1319.5,599.5 1319.5,523.5 1319.5,447.5C 1292.17,447.5 1264.83,447.5 1237.5,447.5C 1237.5,434.5 1237.5,421.5 1237.5,408.5 Z"/></g>
<g><path style="opacity:0.412" fill="#ffedec" d="M 142.5,410.5 C 141.738,412.262 140.404,413.262 138.5,413.5C 139.262,411.738 140.596,410.738 142.5,410.5 Z"/></g>
<g><path style="opacity:0.067" fill="#fff1f0" d="M 204.5,411.5 C 208.354,412.93 212.021,414.597 215.5,416.5C 211.164,416.163 207.497,414.496 204.5,411.5 Z"/></g>
<g><path style="opacity:0.075" fill="#ffeded" d="M 133.5,415.5 C 130.644,417.006 127.477,417.672 124,417.5C 114.207,415.526 104.374,415.193 94.5,416.5C 98.034,414.952 101.867,414.286 106,414.5C 112.059,414.682 118.059,415.349 124,416.5C 127.186,416.256 130.353,415.923 133.5,415.5 Z"/></g>
<g><path style="opacity:0.067" fill="#ffeaea" d="M 254.5,417.5 C 245.585,415.262 236.585,414.928 227.5,416.5C 231.391,414.993 235.558,414.326 240,414.5C 242.833,414.667 245.667,414.833 248.5,415C 250.852,415.24 252.852,416.073 254.5,417.5 Z"/></g>
<g><path style="opacity:0.141" fill="#ffdddb" d="M 94.5,416.5 C 91.669,418.417 88.669,420.083 85.5,421.5C 87.7275,418.55 90.7275,416.884 94.5,416.5 Z"/></g>
<g><path style="opacity:0.076" fill="#ffeeee" d="M 254.5,417.5 C 256.027,417.427 257.027,418.094 257.5,419.5C 255.973,419.573 254.973,418.906 254.5,417.5 Z"/></g>
<g><path style="opacity:0.095" fill="#fffbfb" d="M 260.5,421.5 C 262.833,421.833 264.167,423.167 264.5,425.5C 262.833,424.5 261.5,423.167 260.5,421.5 Z"/></g>
<g><path style="opacity:0.447" fill="#fff6f6" d="M 85.5,421.5 C 84.1667,423.5 82.5,425.167 80.5,426.5C 81.1667,423.833 82.8333,422.167 85.5,421.5 Z"/></g>
<g><path style="opacity:0.251" fill="#ffbfbb" d="M 264.5,425.5 C 265.906,425.973 266.573,426.973 266.5,428.5C 265.094,428.027 264.427,427.027 264.5,425.5 Z"/></g>
<g><path style="opacity:0.306" fill="#ffe1e0" d="M 80.5,426.5 C 80.573,428.027 79.9063,429.027 78.5,429.5C 78.427,427.973 79.0937,426.973 80.5,426.5 Z"/></g>
<g><path style="opacity:0.188" fill="#ffd5d1" d="M 266.5,428.5 C 267.906,428.973 268.573,429.973 268.5,431.5C 267.094,431.027 266.427,430.027 266.5,428.5 Z"/></g>
<g><path style="opacity:0.111" fill="#fff0ef" d="M 76.5,433.5 C 76.405,435.786 75.7384,437.786 74.5,439.5C 74.2594,437.102 74.9261,435.102 76.5,433.5 Z"/></g>
<g><path style="opacity:0.058" fill="#ffe4e2" d="M 270.5,436.5 C 272.463,442.919 273.796,449.586 274.5,456.5C 273.778,456.082 273.278,455.416 273,454.5C 272.056,448.506 271.223,442.506 270.5,436.5 Z"/></g>
<g><path style="opacity:0.063" fill="#fff0f0" d="M 72.5,452.5 C 72.6545,455.716 71.6545,458.383 69.5,460.5C 70.129,457.603 71.129,454.936 72.5,452.5 Z"/></g>
<g><path style="opacity:0.055" fill="#fff0ef" d="M 274.5,456.5 C 276.008,458.181 277.008,460.181 277.5,462.5C 275.461,461.089 274.461,459.089 274.5,456.5 Z"/></g>
<g><path style="opacity:0.431" fill="#ffeeee" d="M 69.5,460.5 C 69.573,462.027 68.9063,463.027 67.5,463.5C 67.427,461.973 68.0937,460.973 69.5,460.5 Z"/></g>
<g><path style="opacity:0.373" fill="#ffdad8" d="M 277.5,462.5 C 280.167,464.5 282.5,466.833 284.5,469.5C 281.167,468.167 278.833,465.833 277.5,462.5 Z"/></g>
<g><path style="opacity:0.659" fill="#ffcccb" d="M 67.5,463.5 C 66.5,466.5 64.5,468.5 61.5,469.5C 63.1667,467.167 65.1667,465.167 67.5,463.5 Z"/></g>
<g><path style="opacity:0.114" fill="#ffeeed" d="M 61.5,469.5 C 59.4208,471.873 56.7541,473.206 53.5,473.5C 55.8485,471.659 58.5152,470.326 61.5,469.5 Z"/></g>
<g><path style="opacity:0.067" fill="#ffebea" d="M 284.5,469.5 C 287.485,470.326 290.151,471.659 292.5,473.5C 289.246,473.206 286.579,471.873 284.5,469.5 Z"/></g>
<g><path style="opacity:0.974" fill="#fe0000" d="M 1512.5,470.5 C 1530.67,468.858 1548.34,471.025 1565.5,477C 1588.3,488.407 1600.8,506.907 1603,532.5C 1603.33,567.833 1603.67,603.167 1604,638.5C 1604.85,647.754 1606.85,656.754 1610,665.5C 1610.67,668.5 1610.67,671.5 1610,674.5C 1595.57,675.656 1581.07,675.823 1566.5,675C 1564.54,670.907 1562.7,666.741 1561,662.5C 1550.73,671.93 1538.56,677.097 1524.5,678C 1501.19,681.256 1480.19,675.923 1461.5,662C 1444.49,645.636 1438.32,625.803 1443,602.5C 1447.87,581.294 1460.37,566.46 1480.5,558C 1493.33,552.793 1506.66,549.793 1520.5,549C 1533.5,548.5 1546.5,548.333 1559.5,548.5C 1560.74,516.248 1545.41,503.081 1513.5,509C 1498.1,512.302 1490.1,521.802 1489.5,537.5C 1474.83,537.5 1460.17,537.5 1445.5,537.5C 1446.65,509.044 1460.31,489.211 1486.5,478C 1495.06,474.665 1503.73,472.165 1512.5,470.5 Z M 1538.5,582.5 C 1545.5,582.5 1552.5,582.5 1559.5,582.5C 1567,607.585 1559,625.085 1535.5,635C 1522.99,640.296 1510.66,640.296 1498.5,635C 1487.35,627.235 1483.52,616.735 1487,603.5C 1489.44,597.392 1493.61,592.892 1499.5,590C 1512.16,584.968 1525.16,582.468 1538.5,582.5 Z"/></g>
<g><path style="opacity:0.12" fill="#fff3f3" d="M 298.5,476.5 C 300.027,476.427 301.027,477.094 301.5,478.5C 299.973,478.573 298.973,477.906 298.5,476.5 Z"/></g>
<g><path style="opacity:0.51" fill="#ffe4e3" d="M 47.5,476.5 C 47.0269,477.906 46.0269,478.573 44.5,478.5C 44.9731,477.094 45.9731,476.427 47.5,476.5 Z"/></g>
<g><path style="opacity:0.012" fill="#fff9f9" d="M 302.5,479.5 C 304.833,479.833 306.167,481.167 306.5,483.5C 304.833,482.5 303.5,481.167 302.5,479.5 Z"/></g>
<g><path style="opacity:0.384" fill="#ffb5ab" d="M 306.5,483.5 C 308.262,484.262 309.262,485.596 309.5,487.5C 307.738,486.738 306.738,485.404 306.5,483.5 Z"/></g>
<g><path style="opacity:0.057" fill="#ffebeb" d="M 309.5,487.5 C 311.104,488.287 311.771,489.62 311.5,491.5C 310.326,490.486 309.66,489.153 309.5,487.5 Z"/></g>
<g><path style="opacity:1" fill="#fffbfa" d="M 235.5,505.5 C 237.02,509.7 236.52,513.7 234,517.5C 215.909,536.093 197.409,554.093 178.5,571.5C 171.411,575.655 164.411,575.489 157.5,571C 145.362,559.863 133.529,548.363 122,536.5C 117.58,529.294 119.08,523.794 126.5,520C 131.736,519.616 136.069,521.449 139.5,525.5C 149.132,534.631 158.632,543.964 168,553.5C 171.036,550.296 174.203,547.296 177.5,544.5C 192.327,529.84 207.327,515.34 222.5,501C 228.077,499.379 232.411,500.879 235.5,505.5 Z"/></g>
<g><path style="opacity:1" fill="#ff5f5f" d="M 178.5,571.5 C 197.409,554.093 215.909,536.093 234,517.5C 236.52,513.7 237.02,509.7 235.5,505.5C 237.671,503.5 240.004,501.666 242.5,500C 249.571,498.69 253.571,501.523 254.5,508.5C 254.485,510.634 253.985,512.634 253,514.5C 234.833,532.667 216.667,550.833 198.5,569C 192.17,572.499 185.503,573.333 178.5,571.5 Z"/></g>
<g><path style="opacity:0.146" fill="#fff2f1" d="M 37.5,485.5 C 31.6937,496.178 31.027,507.178 35.5,518.5C 32.4742,514.071 31.1409,509.071 31.5,503.5C 31.0587,496.564 33.0587,490.564 37.5,485.5 Z"/></g>
<g><path style="opacity:0.061" fill="#ffeeee" d="M 311.5,515.5 C 311.539,518.089 310.539,520.089 308.5,521.5C 308.992,519.181 309.992,517.181 311.5,515.5 Z"/></g>
<g><path style="opacity:1" fill="#ff5e5e" d="M 177.5,544.5 C 174.203,547.296 171.036,550.296 168,553.5C 158.632,543.964 149.132,534.631 139.5,525.5C 141.958,519.793 146.291,517.959 152.5,520C 161.338,527.672 169.672,535.838 177.5,544.5 Z"/></g>
<g><path style="opacity:0.158" fill="#fff9f9" d="M 36.5,520.5 C 38.588,522.336 39.9213,524.669 40.5,527.5C 38.412,525.664 37.0787,523.331 36.5,520.5 Z"/></g>
<g><path style="opacity:0.069" fill="#ffeaea" d="M 307.5,523.5 C 306.403,526.686 305.07,529.686 303.5,532.5C 303.502,528.835 304.835,525.835 307.5,523.5 Z"/></g>
<g><path style="opacity:0.206" fill="#fff4f4" d="M 40.5,527.5 C 41.793,528.842 42.6264,530.509 43,532.5C 43.8119,536.689 43.6453,540.689 42.5,544.5C 42.6888,538.718 42.0221,533.052 40.5,527.5 Z"/></g>
<g><path style="opacity:0.116" fill="#fff0f0" d="M 41.5,548.5 C 41.2064,551.754 39.873,554.421 37.5,556.5C 38.3257,553.515 39.659,550.849 41.5,548.5 Z"/></g>
<g><path style="opacity:0.076" fill="#fff4f4" d="M 306.5,553.5 C 307.906,553.973 308.573,554.973 308.5,556.5C 307.094,556.027 306.427,555.027 306.5,553.5 Z"/></g>
<g><path style="opacity:0.106" fill="#fff5f5" d="M 37.5,556.5 C 36.6743,559.485 35.341,562.151 33.5,564.5C 33.7936,561.246 35.127,558.579 37.5,556.5 Z"/></g>
<g><path style="opacity:0.104" fill="#fffaf9" d="M 33.5,564.5 C 32.2214,571.505 32.2214,578.505 33.5,585.5C 31.9814,582.474 31.3148,579.141 31.5,575.5C 31.3629,571.553 32.0296,567.886 33.5,564.5 Z"/></g>
<g><path style="opacity:0.071" fill="#fffafa" d="M 33.5,585.5 C 35.0075,587.181 36.0075,589.181 36.5,591.5C 34.461,590.089 33.461,588.089 33.5,585.5 Z"/></g>
<g><path style="opacity:0.004" fill="#ffebea" d="M 310.5,589.5 C 310.573,591.027 309.906,592.027 308.5,592.5C 308.427,590.973 309.094,589.973 310.5,589.5 Z"/></g>
<g><path style="opacity:0.176" fill="#ffe6e5" d="M 36.5,591.5 C 38.2624,592.262 39.2624,593.596 39.5,595.5C 37.7376,594.738 36.7376,593.404 36.5,591.5 Z"/></g>
<g><path style="opacity:0.035" fill="#ffdad9" d="M 307.5,593.5 C 307.573,595.027 306.906,596.027 305.5,596.5C 305.427,594.973 306.094,593.973 307.5,593.5 Z"/></g>
<g><path style="opacity:0.447" fill="#ffcdca" d="M 41.5,597.5 C 43.4044,597.738 44.7377,598.738 45.5,600.5C 43.5956,600.262 42.2623,599.262 41.5,597.5 Z"/></g>
<g><path style="opacity:0.016" fill="#ffe5e4" d="M 304.5,597.5 C 304.027,598.906 303.027,599.573 301.5,599.5C 301.973,598.094 302.973,597.427 304.5,597.5 Z"/></g>
<g><path style="opacity:0.267" fill="#ffdad8" d="M 45.5,600.5 C 47.0269,600.427 48.0269,601.094 48.5,602.5C 46.9731,602.573 45.9731,601.906 45.5,600.5 Z"/></g>
<g><path style="opacity:0.1" fill="#fff5f5" d="M 54.5,605.5 C 57.089,605.461 59.089,606.461 60.5,608.5C 58.1815,608.008 56.1815,607.008 54.5,605.5 Z"/></g>
<g><path style="opacity:0.055" fill="#ffeae9" d="M 291.5,605.5 C 289.819,607.008 287.819,608.008 285.5,608.5C 286.911,606.461 288.911,605.461 291.5,605.5 Z"/></g>
<g><path style="opacity:0.176" fill="#fff8f7" d="M 60.5,608.5 C 64.1667,610.167 66.8333,612.833 68.5,616.5C 65.5,614.167 62.8333,611.5 60.5,608.5 Z"/></g>
<g><path style="opacity:0.012" fill="#ffe6e5" d="M 278.5,614.5 C 278.573,616.027 277.906,617.027 276.5,617.5C 276.427,615.973 277.094,614.973 278.5,614.5 Z"/></g>
<g><path style="opacity:0.127" fill="#fff2f2" d="M 68.5,616.5 C 71.1648,618.835 72.4982,621.835 72.5,625.5C 70.9303,622.686 69.5969,619.686 68.5,616.5 Z"/></g>
<g><path style="opacity:0.404" fill="#ffcac7" d="M 72.5,625.5 C 74.1042,629.9 74.7709,634.566 74.5,639.5C 73.3563,635.036 72.6896,630.37 72.5,625.5 Z"/></g>
<g><path style="opacity:0.063" fill="#ffe9e9" d="M 273.5,624.5 C 273.468,629.391 272.801,634.057 271.5,638.5C 271.362,633.586 272.028,628.919 273.5,624.5 Z"/></g>
<g><path style="opacity:0.09" fill="#fff2f2" d="M 74.5,639.5 C 76.0198,641.89 77.0198,644.557 77.5,647.5C 75.4152,645.316 74.4152,642.649 74.5,639.5 Z"/></g>
<g><path style="opacity:0.033" fill="#fff4f4" d="M 271.5,638.5 C 271.655,641.716 270.655,644.383 268.5,646.5C 269.129,643.603 270.129,640.936 271.5,638.5 Z"/></g>
<g><path style="opacity:0.149" fill="#ffe9e8" d="M 77.5,647.5 C 78.9063,647.973 79.573,648.973 79.5,650.5C 78.0937,650.027 77.427,649.027 77.5,647.5 Z"/></g>
<g><path style="opacity:0.027" fill="#ffe2e0" d="M 79.5,650.5 C 81.2624,651.262 82.2624,652.596 82.5,654.5C 80.7376,653.738 79.7376,652.404 79.5,650.5 Z"/></g>
<g><path style="opacity:0.027" fill="#ffe4e3" d="M 265.5,651.5 C 265.573,653.027 264.906,654.027 263.5,654.5C 263.427,652.973 264.094,651.973 265.5,651.5 Z"/></g>
<g><path style="opacity:0.039" fill="#ffeaea" d="M 262.5,655.5 C 261.738,657.262 260.404,658.262 258.5,658.5C 259.262,656.738 260.596,655.738 262.5,655.5 Z"/></g>
<g><path style="opacity:0.294" fill="#ffd2cf" d="M 82.5,654.5 C 84.7488,655.08 86.4154,656.413 87.5,658.5C 85.2512,657.92 83.5846,656.587 82.5,654.5 Z"/></g>
<g><path style="opacity:0.173" fill="#ffdcda" d="M 87.5,658.5 C 89.8185,658.992 91.8185,659.992 93.5,661.5C 90.911,661.539 88.911,660.539 87.5,658.5 Z"/></g>
<g><path style="opacity:0.021" fill="#ffefee" d="M 137.5,664.5 C 130.298,662.757 122.965,662.091 115.5,662.5C 123.079,659.871 130.412,660.537 137.5,664.5 Z"/></g>
<g><path style="opacity:0.031" fill="#ffeeee" d="M 234.5,663.5 C 225.732,661.885 217.065,662.219 208.5,664.5C 216.981,659.532 225.648,659.198 234.5,663.5 Z"/></g>
<g><path style="opacity:0.052" fill="#fff1f1" d="M 93.5,661.5 C 95.7857,661.595 97.7857,662.262 99.5,663.5C 97.1016,663.741 95.1016,663.074 93.5,661.5 Z"/></g>
<g><path style="opacity:0.122" fill="#fff4f4" d="M 137.5,664.5 C 139.027,664.427 140.027,665.094 140.5,666.5C 138.973,666.573 137.973,665.906 137.5,664.5 Z"/></g>
<g><path style="opacity:0.084" fill="#fffbfb" d="M 208.5,664.5 C 208.027,665.906 207.027,666.573 205.5,666.5C 205.973,665.094 206.973,664.427 208.5,664.5 Z"/></g>
<g><path style="opacity:0.639" fill="#ffe4e3" d="M 140.5,666.5 C 143.5,667.5 145.5,669.5 146.5,672.5C 144.167,670.833 142.167,668.833 140.5,666.5 Z"/></g>
<g><path style="opacity:0.016" fill="#fff2f2" d="M 205.5,666.5 C 203.5,669.167 201.167,671.5 198.5,673.5C 199.833,670.167 202.167,667.833 205.5,666.5 Z"/></g>
<g><path style="opacity:0.275" fill="#ffd0cb" d="M 150.5,676.5 C 152.749,677.08 154.415,678.413 155.5,680.5C 153.251,679.92 151.585,678.587 150.5,676.5 Z"/></g>
<g><path style="opacity:0.004" fill="#fff5f5" d="M 193.5,678.5 C 193.027,679.906 192.027,680.573 190.5,680.5C 190.973,679.094 191.973,678.427 193.5,678.5 Z"/></g>
<g><path style="opacity:0.169" fill="#ffe2e1" d="M 155.5,680.5 C 157.674,680.75 159.341,681.75 160.5,683.5C 158.326,683.25 156.659,682.25 155.5,680.5 Z"/></g>
<g><path style="opacity:0.069" fill="#ffeae9" d="M 190.5,680.5 C 189.341,682.25 187.674,683.25 185.5,683.5C 186.659,681.75 188.326,680.75 190.5,680.5 Z"/></g>
<g><path style="opacity:0.072" fill="#ffe8e7" d="M 184.5,683.5 C 182.562,685.163 180.228,685.829 177.5,685.5C 179.599,684.388 181.933,683.721 184.5,683.5 Z"/></g>
</svg>
